0
SECTION
2
HEADER
9
$INSUNITS
70
4
9
$ACADVER
1
AC1014
9
$HANDSEED
5
FFFF
0
ENDSEC
0
SECTION
2
TABLES
0
TABLE
2
VPORT
5
8
100
AcDbSymbolTable
0
ENDTAB
0
TABLE
2
LTYPE
5
5
100
AcDbSymbolTable
0
LTYPE
5
14
100
AcDbSymbolTableRecord
100
AcDbLinetypeTableRecord
2
BYBLOCK
70
0
0
LTYPE
5
15
100
AcDbSymbolTableRecord
100
AcDbLinetypeTableRecord
2
BYLAYER
70
0
0
ENDTAB
0
TABLE
2
LAYER
5
2
100
AcDbSymbolTable
70
2
0
LAYER
5
50
100
AcDbSymbolTableRecord
100
AcDbLayerTableRecord
2
0
70
0
6
CONTINUOUS
0
ENDTAB
0
TABLE
2
STYLE
5
3
100
AcDbSymbolTable
70
1
0
STYLE
5
11
100
AcDbSymbolTableRecord
100
AcDbTextStyleTableRecord
2
STANDARD
70
0
0
ENDTAB
0
TABLE
2
VIEW
5
6
100
AcDbSymbolTable
70
0
0
ENDTAB
0
TABLE
2
UCS
5
7
100
AcDbSymbolTable
70
0
0
ENDTAB
0
TABLE
2
APPID
5
9
100
AcDbSymbolTable
70
2
0
APPID
5
12
100
AcDbSymbolTableRecord
100
AcDbRegAppTableRecord
2
ACAD
70
0
0
ENDTAB
0
TABLE
2
DIMSTYLE
5
A
100
AcDbSymbolTable
70
1
0
ENDTAB
0
TABLE
2
BLOCK_RECORD
5
1
100
AcDbSymbolTable
70
1
0
BLOCK_RECORD
5
1F
100
AcDbSymbolTableRecord
100
AcDbBlockTableRecord
2
*MODEL_SPACE
0
BLOCK_RECORD
5
1B
100
AcDbSymbolTableRecord
100
AcDbBlockTableRecord
2
*PAPER_SPACE
0
ENDTAB
0
ENDSEC
0
SECTION
2
BLOCKS
0
BLOCK
5
20
100
AcDbEntity
100
AcDbBlockBegin
2
*MODEL_SPACE
0
ENDBLK
5
21
100
AcDbEntity
100
AcDbBlockEnd
0
BLOCK
5
1C
100
AcDbEntity
100
AcDbBlockBegin
2
*PAPER_SPACE
0
ENDBLK
5
1D
100
AcDbEntity
100
AcDbBlockEnd
0
ENDSEC
0
SECTION
2
ENTITIES
0
LWPOLYLINE
5
100
100
AcDbEntity
8
0
100
AcDbPolyline
90
4
70
1
43
0.0
10
-223.67028611625648
20
-3.2134006995053443
10
-209.72258611625719
20
-4.4222006995053098
10
-208.51418611625689
20
9.5255693004946398
10
-222.46188611625641
20
10.734349300494646
0
LWPOLYLINE
5
101
100
AcDbEntity
8
0
100
AcDbPolyline
90
4
70
1
43
0.0
10
-175.05428611625695
20
-45.670000699505344
10
-173.84588611625679
20
-31.722200699505365
10
-187.79358611625725
20
-30.513500699505329
10
-189.00198611625726
20
-44.461200699505383
0
LWPOLYLINE
5
102
100
AcDbEntity
8
0
100
AcDbPolyline
90
4
70
1
43
0.0
10
-48.128857472293973
20
-69.025992378653243
10
-50.555341387745386
20
-55.237866968066953
10
-64.343466798331676
20
-57.664350883518345
10
-61.916982882880291
20
-71.452476294104684
0
LWPOLYLINE
5
103
100
AcDbEntity
8
0
100
AcDbPolyline
90
4
70
1
43
0.0
10
-62.768793924345935
20
-45.642786167145786
10
-48.821681514472232
20
-44.42722532689676
10
-50.036842354768254
20
-30.480112723127782
10
-63.983954813115773
20
-31.695573563388564
0
LWPOLYLINE
5
104
100
AcDbEntity
8
0
100
AcDbPolyline
90
4
70
1
43
0.0
10
-196.08948611625664
20
-67.748700699505434
10
-194.8806861162567
20
-53.801000699505352
10
-208.82838611625701
20
-52.592200699505362
10
-210.037186116257
20
-66.539900699505395
0
LWPOLYLINE
5
105
100
AcDbEntity
8
0
100
AcDbPolyline
90
4
70
1
43
0.0
10
-187.26308611625632
20
-55.271000699505407
10
-189.68288611625695
20
-69.060300699505405
10
-175.89358611625727
20
-71.480100699505414
10
-173.47378611625672
20
-57.690800699505388
0
LWPOLYLINE
5
106
100
AcDbEntity
8
0
100
AcDbPolyline
90
2
70
1
43
0.0
10
-211.36708611625664
20
-23.401500699505419
10
-210.15868611625663
20
-9.4538006995053756
0
LWPOLYLINE
5
107
100
AcDbEntity
8
0
100
AcDbPolyline
90
8
70
1
43
0.0
10
-135.88788611625719
20
-35.011800699505386
10
-149.83588611625689
20
-33.803100699505393
10
-151.04468611625694
20
-47.75080069950539
10
-137.09688611625663
20
-48.959500699505412
10
-135.88788611625719
20
-35.011800699505386
10
-149.83588611625689
20
-33.803100699505393
10
-151.04468611625694
20
-47.75080069950539
10
-137.09688611625663
20
-48.959500699505412
0
LWPOLYLINE
5
108
100
AcDbEntity
8
0
100
AcDbPolyline
90
4
70
1
43
0.0
10
-204.69148611625718
20
-4.8582006995053817
10
-190.7437861162569
20
-6.067000699505356
10
-189.5353861162566
20
7.8807693004946531
10
-203.48308611625711
20
9.0895493004946353
0
LWPOLYLINE
5
109
100
AcDbEntity
8
0
100
AcDbPolyline
90
8
70
1
43
0.0
10
-205.12758611625662
20
-9.8898006995053436
10
-206.33598611625666
20
-23.837500699505387
10
-192.38828611625635
20
-25.046300699505348
10
-191.1798861162564
20
-11.09860069950531
10
-205.12758611625662
20
-9.8898006995053436
10
-206.33598611625666
20
-23.837500699505387
10
-192.38828611625635
20
-25.046300699505348
10
-191.1798861162564
20
-11.09860069950531
0
LWPOLYLINE
5
110
100
AcDbEntity
8
0
100
AcDbPolyline
90
4
70
1
43
0.0
10
-173.40948611625697
20
-26.691100699505384
10
-172.20108611625704
20
-12.743400699505351
10
-186.14878611625628
20
-11.534600699505383
10
-187.35718611625634
20
-25.482300699505316
0
LWPOLYLINE
5
111
100
AcDbEntity
8
0
100
AcDbPolyline
90
8
70
1
43
0.0
10
-213.85948611625702
20
-52.156200699505426
10
-227.8071861162573
20
-50.947400699505437
10
-229.01600611625662
20
-64.895100699505392
10
-215.06828611625701
20
-66.103900699505417
10
-213.85948611625702
20
-52.156200699505426
10
-227.8071861162573
20
-50.947400699505437
10
-229.01600611625662
20
-64.895100699505392
10
-215.06828611625701
20
-66.103900699505417
0
LWPOLYLINE
5
112
100
AcDbEntity
8
0
100
AcDbPolyline
90
4
70
1
43
0.0
10
-172.20108611625704
20
-12.743400699505351
10
-186.14878611625628
20
-11.534600699505383
10
-187.35718611625634
20
-25.482300699505316
10
-173.40948611625697
20
-26.691100699505384
0
LWPOLYLINE
5
113
100
AcDbEntity
8
0
100
AcDbPolyline
90
4
70
1
43
0.0
10
-189.68288611625695
20
-69.060300699505405
10
-175.89358611625727
20
-71.480100699505414
10
-173.47378611625672
20
-57.690800699505388
10
-187.26308611625632
20
-55.271000699505407
0
LWPOLYLINE
5
114
100
AcDbEntity
8
0
100
AcDbPolyline
90
4
70
1
43
0.0
10
-132.59888611625721
20
2.9457993004946426
10
-146.54628611625728
20
4.1545993004946613
10
-147.75508611625719
20
-9.7931006995053451
10
-133.80688611625717
20
-11.001900699505342
0
LWPOLYLINE
5
115
100
AcDbEntity
8
0
100
AcDbPolyline
90
4
70
1
43
0.0
10
-208.51418611625689
20
9.5255693004946398
10
-222.46188611625641
20
10.734349300494646
10
-223.67028611625648
20
-3.2134006995053443
10
-209.72258611625719
20
-4.4222006995053098
0
LWPOLYLINE
5
116
100
AcDbEntity
8
0
100
AcDbPolyline
90
8
70
1
43
0.0
10
-85.054593798414558
20
-9.3401846794704966
10
-71.107481388540833
20
-8.1246238392214654
10
-72.322642253073752
20
5.8225387645416271
10
-86.269754687184346
20
4.607027924286724
10
-85.054593798414558
20
-9.3401846794704966
10
-71.107481388540833
20
-8.1246238392214654
10
-72.322642253073752
20
5.8225387645416271
10
-86.269754687184346
20
4.607027924286724
0
LWPOLYLINE
5
117
100
AcDbEntity
8
0
100
AcDbPolyline
90
4
70
1
43
0.0
10
-190.7437861162569
20
-6.067000699505356
10
-189.5353861162566
20
7.8807693004946531
10
-203.48308611625711
20
9.0895493004946353
10
-204.69148611625718
20
-4.8582006995053817
0
LWPOLYLINE
5
118
100
AcDbEntity
8
0
100
AcDbPolyline
90
4
70
1
43
0.0
10
-146.54628611625728
20
4.1545993004946613
10
-147.75508611625719
20
-9.7931006995053451
10
-133.80688611625717
20
-11.001900699505342
10
-132.59888611625721
20
2.9457993004946426
0
LWPOLYLINE
5
119
100
AcDbEntity
8
0
100
AcDbPolyline
90
4
70
1
43
0.0
10
-75.827788896983492
20
-72.887519561044641
10
-80.611667295827488
20
-59.730236943609015
10
-93.76894986478932
20
-64.514215342441275
10
-88.985071514419104
20
-77.671397959888651
0
LWPOLYLINE
5
120
100
AcDbEntity
8
0
100
AcDbPolyline
90
4
70
1
43
0.0
10
-64.42279352794101
20
-26.664685694197825
10
-50.4756811180673
20
-25.449124853948788
10
-51.690841958363336
20
-11.502012250179838
10
-65.637954368237033
20
-12.717573090428861
0
LWPOLYLINE
5
121
100
AcDbEntity
8
0
100
AcDbPolyline
90
4
70
1
43
0.0
10
-12.519680172147908
20
-22.141125743706272
10
-13.734841012443926
20
-8.1940131399373062
10
-27.681953422317633
20
-9.4095739801863374
10
-26.466792582021604
20
-23.356686583955305
0
LWPOLYLINE
5
122
100
AcDbEntity
8
0
100
AcDbPolyline
90
4
70
1
43
0.0
10
-125.91906484924192
20
-10.918473494781962
10
-111.91906649403953
20
-10.911687160711274
10
-111.92585282811022
20
3.0883111944911334
10
-125.9258511833126
20
3.0815248604204459
0
LWPOLYLINE
5
123
100
AcDbEntity
8
0
100
AcDbPolyline
90
4
70
1
43
0.0
10
-50.555341387745386
20
-55.237866968066953
10
-64.343466798331676
20
-57.664350883518345
10
-61.916982882880291
20
-71.452476294104684
10
-48.128857472293973
20
-69.025992378653243
0
LWPOLYLINE
5
124
100
AcDbEntity
8
0
100
AcDbPolyline
90
4
70
1
43
0.0
10
-173.84588611625679
20
-31.722200699505365
10
-187.79358611625725
20
-30.513500699505329
10
-189.00198611625726
20
-44.461200699505383
10
-175.05428611625695
20
-45.670000699505344
0
LWPOLYLINE
5
125
100
AcDbEntity
8
0
100
AcDbPolyline
90
4
70
1
43
0.0
10
-67.291611481973561
20
6.2605072291403427
10
-66.076493325466586
20
-7.686185075875418
10
-52.12938091559289
20
-6.4706242356263965
10
-53.34484151833199
20
7.4759982227786921
0
LWPOLYLINE
5
126
100
AcDbEntity
8
0
100
AcDbPolyline
90
4
70
1
43
0.0
10
-43.790793451386236
20
-43.988786612024526
10
-29.843681041512529
20
-42.773225771775493
10
-31.058841930282366
20
-28.826013168018278
10
-45.005954340156066
20
-30.041574008267311
0
LWPOLYLINE
5
127
100
AcDbEntity
8
0
100
AcDbPolyline
90
4
70
1
43
0.0
10
-50.4756811180673
20
-25.449124853948788
10
-51.690841958363336
20
-11.502012250179838
10
-65.637954368237033
20
-12.717573090428861
10
-64.42279352794101
20
-26.664685694197825
0
LWPOLYLINE
5
128
100
AcDbEntity
8
0
100
AcDbPolyline
90
2
70
1
43
0.0
10
-22.744893534571947
20
-66.057287454207639
10
-8.7977611247005925
20
-64.84172660426384
0
LWPOLYLINE
5
129
100
AcDbEntity
8
0
100
AcDbPolyline
90
4
70
1
43
0.0
10
-87.992943300675933
20
-33.788111881844131
10
-101.9403557589882
20
-35.003572867526358
10
-100.72459491876266
20
-48.950685180452425
10
-86.77738246042685
20
-47.735224291717849
0
LWPOLYLINE
5
130
100
AcDbEntity
8
0
100
AcDbPolyline
90
4
70
1
43
0.0
10
-29.843681041512529
20
-42.773225771775493
10
-31.058841930282366
20
-28.826013168018278
10
-45.005954340156066
20
-30.041574008267311
10
-43.790793451386236
20
-43.988786612024526
0
LWPOLYLINE
5
131
100
AcDbEntity
8
0
100
AcDbPolyline
90
4
70
1
43
0.0
10
-66.076493325466586
20
-7.686185075875418
10
-52.12938091559289
20
-6.4706242356263965
10
-53.34484151833199
20
7.4759982227786921
10
-67.291611481973561
20
6.2605072291403427
0
LWPOLYLINE
5
132
100
AcDbEntity
8
0
100
AcDbPolyline
90
2
70
1
43
0.0
10
-28.120492379547191
20
-4.3781859656328947
10
-14.173379969673485
20
-3.1626251253838644
0
LWPOLYLINE
5
133
100
AcDbEntity
8
0
100
AcDbPolyline
90
2
70
1
43
0.0
10
-48.313653726734593
20
7.9149970830065879
10
-47.098492852506894
20
-6.0321855207541564
0
LWPOLYLINE
5
134
100
AcDbEntity
8
0
100
AcDbPolyline
90
4
70
1
43
0.0
10
-15.388540834206417
20
10.784537478379228
10
-29.335653253774883
20
9.5689966381278513
10
-28.120492379547191
20
-4.3781859656328947
10
-29.335653253774883
20
9.5689966381278513
0
CIRCLE
5
135
100
AcDbEntity
8
0
100
AcDbCircle
10
118.9538711435757
20
-71.07792420567803
30
-9.3190392608902317e-16
40
10.999999999999998
210
2.9681651934690491e-20
220
-1.2246467631777791e-16
230
-1
0
LWPOLYLINE
5
136
100
AcDbEntity
8
0
100
AcDbPolyline
90
4
70
1
43
0.0
10
-194.8806861162567
20
-53.801000699505352
10
-208.82838611625701
20
-52.592200699505362
10
-210.037186116257
20
-66.539900699505395
10
-196.08948611625664
20
-67.748700699505434
0
LWPOLYLINE
5
137
100
AcDbEntity
8
0
100
AcDbPolyline
90
4
70
1
43
0.0
10
-13.734841012443926
20
-8.1940131399373062
10
-27.681953422317633
20
-9.4095739801863374
10
-26.466792582021604
20
-23.356686583955305
10
-12.519680172147908
20
-22.141125743706272
0
LWPOLYLINE
5
138
100
AcDbEntity
8
0
100
AcDbPolyline
90
8
70
1
43
0.0
10
-89.632522013748599
20
-14.853104423603224
10
-103.57953442363404
20
-16.068665215378431
10
-102.36377358340852
20
-30.015777528304504
10
-88.417061173487838
20
-28.800216881950735
10
-89.632522013748599
20
-14.853104423603224
10
-103.57953442363404
20
-16.068665215378431
10
-102.36377358340852
20
-30.015777528304504
10
-88.417061173487838
20
-28.800216881950735
0
LWPOLYLINE
5
139
100
AcDbEntity
8
0
100
AcDbPolyline
90
4
70
1
43
0.0
10
-104.0329940289582
20
-10.994684428428281
10
-90.08538161914322
20
-9.7791233458101701
10
-91.300942459392246
20
4.1679890640635371
10
-105.24775486930119
20
2.9524283692359532
0
LWPOLYLINE
5
140
100
AcDbEntity
8
0
100
AcDbPolyline
90
4
70
1
43
0.0
10
-90.08538161914322
20
-9.7791233458101701
10
-91.300942459392246
20
4.1679890640635371
10
-105.24775486930119
20
2.9524283692359532
10
-104.0329940289582
20
-10.994684428428281
0
LWPOLYLINE
5
141
100
AcDbEntity
8
0
100
AcDbPolyline
90
4
70
1
43
0.0
10
-101.9403557589882
20
-35.003572867526358
10
-100.72459491876266
20
-48.950685180452425
10
-86.77738246042685
20
-47.735224291717849
10
-87.992943300675933
20
-33.788111881844131
0
LWPOLYLINE
5
142
100
AcDbEntity
8
0
100
AcDbPolyline
90
4
70
1
43
0.0
10
-69.453781542541449
20
-27.103224457532129
10
-70.66894243131128
20
-13.156011853774906
10
-84.616054841185004
20
-14.371572694023937
10
-83.400894000888968
20
-28.318685297792896
0
LWPOLYLINE
5
143
100
AcDbEntity
8
0
100
AcDbPolyline
90
4
70
1
43
0.0
10
-26.027953867196366
20
-28.38757445314603
10
-24.81279297842654
20
-42.334787056903274
10
-10.865680568552829
20
-41.119226216654248
10
-12.080841457322663
20
-27.172013612897004
0
LWPOLYLINE
5
144
100
AcDbEntity
8
0
100
AcDbPolyline
90
8
70
1
43
0.0
10
-27.775781597657947
20
-66.495726169079887
10
-28.991342437906976
20
-52.548613759206155
10
-42.938454847780683
20
-53.764174599455202
10
-41.72289400753165
20
-67.711287009328913
10
-27.775781597657947
20
-66.495726169079887
10
-28.991342437906976
20
-52.548613759206155
10
-42.938454847780683
20
-53.764174599455202
10
-41.72289400753165
20
-67.711287009328913
0
LWPOLYLINE
5
145
100
AcDbEntity
8
0
100
AcDbPolyline
90
4
70
1
43
0.0
10
-149.41418611625681
20
-28.815000699505376
10
-135.46688611625652
20
-30.023800699505429
10
-134.25788611625708
20
-16.076100699505382
10
-148.20548611625659
20
-14.867300699505396
0
LWPOLYLINE
5
146
100
AcDbEntity
8
0
100
AcDbPolyline
90
8
70
1
43
0.0
10
-46.659953895277333
20
-11.063573535307608
10
-45.444793054981304
20
-25.010686139076583
10
-31.497680645107607
20
-23.795125298827546
10
-32.712841485403629
20
-9.8480126950585767
10
-46.659953895277333
20
-11.063573535307608
10
-45.444793054981304
20
-25.010686139076583
10
-31.497680645107607
20
-23.795125298827546
10
-32.712841485403629
20
-9.8480126950585767
0
LWPOLYLINE
5
147
100
AcDbEntity
8
0
100
AcDbPolyline
90
4
70
1
43
0.0
10
-111.92585282811022
20
3.0883111944911334
10
-125.9258511833126
20
3.0815248604204459
10
-125.91906484924192
20
-10.918473494781962
10
-111.91906649403953
20
-10.911687160711274
0
CIRCLE
5
148
100
AcDbEntity
8
0
100
AcDbCircle
10
174.60730118210094
20
-81.957727449900347
30
-9.3190392608902021e-16
40
1.1999999999999698
210
2.9681651934690491e-20
220
-1.2246467631777791e-16
230
-1
0
LWPOLYLINE
5
149
100
AcDbEntity
8
0
100
AcDbPolyline
90
8
70
1
43
0.0
10
-166.73378611625685
20
-8.1478006995053462
10
-152.78608611625654
20
-9.3566006995053144
10
-151.57768611625639
20
4.591199300494675
10
-165.52538611625678
20
5.7999493004946459
10
-166.73378611625685
20
-8.1478006995053462
10
-152.78608611625654
20
-9.3566006995053144
10
-151.57768611625639
20
4.591199300494675
10
-165.52538611625678
20
5.7999493004946459
0
CIRCLE
5
150
100
AcDbEntity
8
0
100
AcDbCircle
10
236.00645305730262
20
-65.573468186924345
30
-9.3190392608902218e-16
40
1.2000000000000097
210
2.9681651934690491e-20
220
-1.2246467631777791e-16
230
-1
0
LWPOLYLINE
5
151
100
AcDbEntity
8
0
100
AcDbPolyline
90
4
70
1
43
0.0
10
-93.76894986478932
20
-64.514215342441275
10
-88.985071514419104
20
-77.671397959888651
10
-75.827788896983492
20
-72.887519561044641
10
-80.611667295827488
20
-59.730236943609015
0
LWPOLYLINE
5
152
100
AcDbEntity
8
0
100
AcDbPolyline
90
4
70
1
43
0.0
10
-148.8224861162571
20
-77.685900699505424
10
-144.0449861162563
20
-64.526400699505373
10
-157.20458611625651
20
-59.748800699505431
10
-161.98208611625654
20
-72.908400699505393
0
ARC
5
153
100
AcDbEntity
8
0
100
AcDbCircle
10
1.8069861743321263
20
-65.51670547568115
30
-9.3190392608902613e-16
40
2.4999999999999059
210
2.9681651934693266e-20
220
-1.2246467631777789e-16
230
-1
100
AcDbArc
50
85.015057871227839
51
265.0150578712279
0
LWPOLYLINE
5
154
100
AcDbEntity
8
0
100
AcDbPolyline
90
4
70
1
43
0.0
10
-135.46688611625652
20
-30.023800699505429
10
-134.25788611625708
20
-16.076100699505382
10
-148.20548611625659
20
-14.867300699505396
10
-149.41418611625681
20
-28.815000699505376
0
LWPOLYLINE
5
155
100
AcDbEntity
8
0
100
AcDbPolyline
90
4
70
1
43
0.0
10
-144.0449861162563
20
-64.526400699505373
10
-157.20458611625651
20
-59.748800699505431
10
-161.98208611625654
20
-72.908400699505393
10
-148.8224861162571
20
-77.685900699505424
0
LWPOLYLINE
5
156
100
AcDbEntity
8
0
100
AcDbPolyline
90
8
70
1
43
0.0
10
-192.82468611625711
20
-30.077400699505414
10
-206.77238611625631
20
-28.868600699505336
10
-207.98078611625655
20
-42.816400699505337
10
-194.03308611625727
20
-44.025200699505419
10
-192.82468611625711
20
-30.077400699505414
10
-206.77238611625631
20
-28.868600699505336
10
-207.98078611625655
20
-42.816400699505337
10
-194.03308611625727
20
-44.025200699505419
0
LWPOLYLINE
5
157
100
AcDbEntity
8
0
100
AcDbPolyline
90
8
70
1
43
0.0
10
-170.02308611625716
20
-46.106000699505394
10
-156.07538611625691
20
-47.314800699505369
10
-154.86698611625673
20
-33.367000699505375
10
-168.81468611625729
20
-32.158300699505354
10
-170.02308611625716
20
-46.106000699505394
10
-156.07538611625691
20
-47.314800699505369
10
-154.86698611625673
20
-33.367000699505375
10
-168.81468611625729
20
-32.158300699505354
0
LWPOLYLINE
5
158
100
AcDbEntity
8
0
100
AcDbPolyline
90
4
70
1
43
0.0
10
-84.616054841185004
20
-14.371572694023937
10
-83.400894000888968
20
-28.318685297792896
10
-69.453781542541449
20
-27.103224457532129
10
-70.66894243131128
20
-13.156011853774906
0
LWPOLYLINE
5
159
100
AcDbEntity
8
0
100
AcDbPolyline
90
4
70
1
43
0.0
10
-225.75118611625669
20
-27.223800699505396
10
-226.95958611625684
20
-41.171600699505397
10
-213.01188611625656
20
-42.380400699505365
10
-211.80348611625632
20
-28.432600699505393
0
LWPOLYLINE
5
160
100
AcDbEntity
8
0
100
AcDbPolyline
90
4
70
1
43
0.0
10
-153.22218611625701
20
-14.388200699505379
10
-167.16988611625624
20
-13.179400699505406
10
-168.37828611625639
20
-27.127200699505387
10
-154.43058611625699
20
-28.335900699505324
0
LWPOLYLINE
5
161
100
AcDbEntity
8
0
100
AcDbPolyline
90
4
70
1
43
0.0
10
-24.81279297842654
20
-42.334787056903274
10
-10.865680568552829
20
-41.119226216654248
10
-12.080841457322663
20
-27.172013612897004
10
-26.027953867196366
20
-28.38757445314603
0
LINE
5
162
100
AcDbEntity
8
0
100
AcDbLine
10
-176.95331499241291
20
-81.093887648879601
30
1.0857788361655019e-14
11
-175.58023962005058
21
-77.364893242331448
31
1.0401159023811577e-14
0
LWPOLYLINE
5
163
100
AcDbEntity
8
0
100
AcDbPolyline
90
4
70
1
43
0.0
10
-226.95958611625684
20
-41.171600699505397
10
-213.01188611625656
20
-42.380400699505365
10
-211.80348611625632
20
-28.432600699505393
10
-225.75118611625669
20
-27.223800699505396
0
ARC
5
164
100
AcDbEntity
8
0
100
AcDbCircle
10
174.60730118210094
20
-81.957727449900347
30
-9.3190392608902218e-16
40
2.5000000000003784
210
2.9681651934688625e-20
220
-1.2246467631777789e-16
230
-1
100
AcDbArc
50
-159.78548623373936
51
20.214513766261756
0
CIRCLE
5
165
100
AcDbEntity
8
0
100
AcDbCircle
10
63.198188760530769
20
-81.930725324906632
30
-9.3190392608902021e-16
40
1.1999999999999897
210
2.9681651934690491e-20
220
-1.2246467631777791e-16
230
-1
0
CIRCLE
5
166
100
AcDbEntity
8
0
100
AcDbCircle
10
8.5579762319431705
20
11.881832233462951
30
-9.3190392608902514e-16
40
1.1999999999999997
210
2.9681651934690491e-20
220
-1.2246467631777791e-16
230
-1
0
SPLINE
5
167
100
AcDbEntity
8
0
100
AcDbSpline
70
4
71
5
72
16
73
10
74
0
42
0.000000001
43
0.0000000001
44
0.0000000001
40
0
40
0
40
0
40
0
40
0
40
0
40
0.20000000000000001
40
0.40000000000000002
40
0.60000000000000009
40
0.80000000000000004
40
1
40
1
40
1
40
1
40
1
40
1
41
1
41
1
41
1
41
1
41
1
41
1
41
1
41
1
41
1
41
1
10
-95.81137203395285
20
-85.717561594397466
30
1.1426433521700003e-14
10
-98.236034051635698
20
-85.872568802087585
30
1.1445344461242629e-14
10
-102.79125188788942
20
-86.14704630489004
30
1.1478823053389542e-14
10
-108.74267364665053
20
-86.452238591459135
30
1.1516021679949746e-14
10
-115.26202509788445
20
-86.66759646597923
30
1.1542201907224718e-14
10
-122.57467776663333
20
-86.668313503355492
30
1.1542072667363679e-14
10
-129.09412948152638
20
-86.454833993083838
30
1.1515735460141173e-14
10
-135.04569334970773
20
-86.152210518676569
30
1.1478498122054525e-14
10
-139.60103898305826
20
-85.88008745883036
30
1.1445037449428324e-14
10
-142.02577317038373
20
-85.726418114333427
30
1.1426146412778361e-14
0
LINE
5
168
100
AcDbEntity
8
0
100
AcDbLine
10
-151.23198611625699
20
7.5729193004946502
30
0
11
-86.616900000000001
21
7.5885800000000012
31
0
0
LWPOLYLINE
5
169
100
AcDbEntity
8
0
100
AcDbPolyline
90
4
70
1
43
0.0
10
-33.15138044263319
20
-4.816624680505126
10
-34.366541307166116
20
9.1305379232579682
10
-48.313653726734593
20
7.9149970830065879
10
-34.366541307166116
20
9.1305379232579664
0
LWPOLYLINE
5
170
100
AcDbEntity
8
0
100
AcDbPolyline
90
4
70
1
43
0.0
10
-167.16988611625624
20
-13.179400699505406
10
-168.37828611625639
20
-27.127200699505387
10
-154.43058611625699
20
-28.335900699505324
10
-153.22218611625701
20
-14.388200699505379
0
CIRCLE
5
171
100
AcDbEntity
8
0
100
AcDbCircle
10
229.29298181665507
20
11.82833289142765
30
-9.3190392608902534e-16
40
1.2000000000000097
210
2.9681651934690491e-20
220
-1.2246467631777791e-16
230
-1
0
ARC
5
172
100
AcDbEntity
8
0
100
AcDbCircle
10
63.198188760530769
20
-81.930725324906632
30
-9.3190392608902416e-16
40
2.5000000000000435
210
2.9681651934694788e-20
220
-1.2246467631777789e-16
230
-1
100
AcDbArc
50
159.75771278261234
51
339.75771278261152
0
CIRCLE
5
173
100
AcDbEntity
8
0
100
AcDbCircle
10
1.8069861743321263
20
-65.51670547568115
30
-9.3190392608902416e-16
40
1.1999999999999997
210
2.9681651934690491e-20
220
-1.2246467631777791e-16
230
-1
0
LWPOLYLINE
5
174
100
AcDbEntity
8
0
100
AcDbPolyline
90
8
70
1
43
0.0
10
-69.014942827716212
20
-32.134112326722864
10
-82.962055286063702
20
-33.349573166983639
10
-81.746894397293914
20
-47.296785770740868
10
-67.799781987420175
20
-46.081224930491842
10
-69.014942827716212
20
-32.134112326722864
10
-82.962055286063702
20
-33.349573166983639
10
-81.746894397293914
20
-47.296785770740868
10
-67.799781987420175
20
-46.081224930491842
0
LINE
5
175
100
AcDbEntity
8
0
100
AcDbLine
10
-225.62359702150616
20
9.0006809989326086
30
-1.7705844015987582e-16
11
-229.50900935543081
21
9.3376839594241652
31
-2.1844472409112559e-16
0
LWPOLYLINE
5
176
100
AcDbEntity
8
0
100
AcDbPolyline
90
4
70
1
43
0.0
10
-111.92405928190621
20
-35.011795745838171
10
-125.9240576371086
20
-35.01858207990886
10
-125.91727130303794
20
-49.018580435111254
10
-111.91727294783553
20
-49.011794101040564
0
LWPOLYLINE
5
177
100
AcDbEntity
8
0
100
AcDbPolyline
90
2
70
1
43
0.0
10
-23.960454374820976
20
-52.110175044333936
10
-22.744893534571947
20
-66.057287454207639
0
LWPOLYLINE
5
178
100
AcDbEntity
8
0
100
AcDbPolyline
90
4
70
1
43
0.0
10
-111.92495604655443
20
-15.961921860840418
10
-125.92495440175684
20
-15.968708194911105
10
-125.91816806768614
20
-29.968706550113502
10
-111.91816971248373
20
-29.961920216042817
0
LWPOLYLINE
5
179
100
AcDbEntity
8
0
100
AcDbPolyline
90
4
70
1
43
0.0
10
-125.92495440175684
20
-15.968708194911105
10
-125.91816806768614
20
-29.968706550113502
10
-111.91816971248373
20
-29.961920216042817
10
-111.92495604655443
20
-15.961921860840418
0
CIRCLE
5
180
100
AcDbEntity
8
0
100
AcDbCircle
10
118.9538711435757
20
-71.07792420567803
30
-9.3190392608902317e-16
40
10.999999999999993
210
2.9681651934690491e-20
220
-1.2246467631777791e-16
230
-1
0
LWPOLYLINE
5
181
100
AcDbEntity
8
0
100
AcDbPolyline
90
4
70
1
43
0.0
10
-125.9240576371086
20
-35.01858207990886
10
-125.91727130303794
20
-49.018580435111254
10
-111.91727294783553
20
-49.011794101040564
10
-111.92405928190621
20
-35.011795745838171
0
LWPOLYLINE
5
182
100
AcDbEntity
8
0
100
AcDbPolyline
90
4
70
1
43
0.0
10
-50.036842354768254
20
-30.480112723127782
10
-63.983954813115773
20
-31.695573563388564
10
-62.768793924345935
20
-45.642786167145786
10
-48.821681514472232
20
-44.42722532689676
0
SPLINE
5
183
100
AcDbEntity
8
0
100
AcDbSpline
70
0
71
5
72
42
73
36
74
0
42
0.000000001
43
0.0000000001
44
0.0000000001
40
-0.24298957406909599
40
-0.24298957406909599
40
-0.24298957406909599
40
-0.24298957406909599
40
-0.24298957406909599
40
-0.24298957406909599
40
-0.23902439024390301
40
-0.23414634146341501
40
-0.22926829268292701
40
-0.224390243902439
40
-0.21951219512195103
40
-0.21463414634146399
40
-0.20975609756097599
40
-0.20487804878048799
40
-0.20000000000000001
40
-0.19512195121951201
40
-0.190243902439024
40
-0.18536585365853697
40
-0.18048780487804897
40
-0.17560975609756099
40
-0.17073170731707299
40
-0.16585365853658501
40
-0.16097560975609801
40
-0.15609756097561001
40
-0.15121951219512197
40
-0.146341463414634
40
-0.141463414634146
40
-0.13658536585365899
40
-0.13170731707317099
40
-0.12682926829268301
40
-0.12195121951219499
40
-0.11707317073170699
40
-0.11219512195122
40
-0.107317073170732
40
-0.10243902439024399
40
-0.097560975609756101
40
-0.093324002987414681
40
-0.093324002987414681
40
-0.093324002987414681
40
-0.093324002987414681
40
-0.093324002987414681
40
-0.093324002987414681
10
-175.5802396200516
20
-77.364893242331334
30
1.0401159023811563e-14
10
-175.69152119407576
20
-77.323653421827231
30
1.0396105299521177e-14
10
-175.92552980499576
20
-77.236839851292643
30
1.0385466757943527e-14
10
-176.24301946244935
20
-77.118802949651723
30
1.0371001983373015e-14
10
-176.60867977183534
20
-76.982902889948463
30
1.0354348173147861e-14
10
-177.09581722823032
20
-76.804779689330346
30
1.0332519913995048e-14
10
-177.77801440474533
20
-76.561413355963225
30
1.0302695886013457e-14
10
-178.69794316237972
20
-76.240761214896082
30
1.0263400020341878e-14
10
-179.84580538356752
20
-75.84999765638392
30
1.0215511217184985e-14
10
-181.16472674874962
20
-75.413073465820176
30
1.0161964289847298e-14
10
-182.57202021991802
20
-74.962453573986409
30
1.0106737499856542e-14
10
-183.98100269198082
20
-74.530701355543471
30
1.0053821283248129e-14
10
-185.32434758315253
20
-74.141382192195039
30
1.0006103565228866e-14
10
-186.57137047617744
20
-73.802536571248311
30
9.9645699322384608e-15
10
-187.71830542047198
20
-73.511569743376711
30
9.9289027309201482e-15
10
-188.78255257183275
20
-73.258426784299417
30
9.8978700717611012e-15
10
-189.79529392998052
20
-73.029549734349814
30
9.8698106580859655e-15
10
-190.79500088840319
20
-72.811239494083992
30
9.8430456922209792e-15
10
-191.82008338011173
20
-72.593916758951906
30
9.8164009076648129e-15
10
-192.90374418789122
20
-72.373495710046697
30
9.7893749504140974e-15
10
-194.0708901207588
20
-72.1497687818636
30
9.7619416617512443e-15
10
-195.33464420597809
20
-71.9255900681339
30
9.7344501778281147e-15
10
-196.69271109791248
20
-71.705723155298088
30
9.7074839378458976e-15
10
-198.12451765715002
20
-71.495857415454154
30
9.6817402995617895e-15
10
-199.58616056935739
20
-71.301488994438046
30
9.6578936498194808e-15
10
-201.01948200018427
20
-71.127292334408764
30
9.6365181688855393e-15
10
-202.36535447938047
20
-70.976594676545446
30
9.6180230812749857e-15
10
-203.57512987711672
20
-70.850845544954069
30
9.6025873464451287e-15
10
-204.62378784182874
20
-70.749023783863976
30
9.5900866515304156e-15
10
-205.52019354752773
20
-70.667220520607046
30
9.5800420345717698e-15
10
-206.32403506289847
20
-70.597770800013834
30
9.5715130376748935e-15
10
-207.11369321027746
20
-70.532073099771182
30
9.5634439517215745e-15
10
-207.82885441702098
20
-70.473321832393225
30
9.5562277696128601e-15
10
-208.44557162964742
20
-70.422547318220708
30
9.5499913799838813e-15
10
-208.8904156779484
20
-70.385799607358479
30
9.5454778797615142e-15
10
-209.10687920501815
20
-70.367887570891014
30
9.5432778630182681e-15
0
LWPOLYLINE
5
184
100
AcDbEntity
8
0
100
AcDbPolyline
90
2
70
1
43
0.0
10
-10.013341964947271
20
-50.89461420408491
10
-23.960454374820976
20
-52.110175044333936
0
LWPOLYLINE
5
185
100
AcDbEntity
8
0
100
AcDbPolyline
90
2
70
1
43
0.0
10
-47.098492852506894
20
-6.0321855207541564
10
-33.15138044263319
20
-4.816624680505126
0
LWPOLYLINE
5
186
100
AcDbEntity
8
0
100
AcDbPolyline
90
4
70
1
43
0.0
10
-224.10638611625694
20
-8.2450006995054004
10
-225.31478611625687
20
-22.192700699505338
10
-211.36708611625664
20
-23.401500699505419
10
-225.31478611625687
20
-22.192700699505338
0
LWPOLYLINE
5
187
100
AcDbEntity
8
0
100
AcDbPolyline
90
4
70
1
43
0.0
10
-184.50398611625701
20
7.4442093004946486
10
-185.71268611625683
20
-6.5035006995053601
10
-171.76498611625652
20
-7.7123006995053389
10
-170.55628611625721
20
6.2354493004946443
0
LWPOLYLINE
5
188
100
AcDbEntity
8
0
100
AcDbPolyline
90
2
70
1
43
0.0
10
-14.173379969673485
20
-3.1626251253838644
10
-15.388540834206417
20
10.784537478379228
0
LWPOLYLINE
5
189
100
AcDbEntity
8
0
100
AcDbPolyline
90
2
70
1
43
0.0
10
-8.7977611247005925
20
-64.84172660426384
10
-10.013341964947271
20
-50.89461420408491
0
LWPOLYLINE
5
190
100
AcDbEntity
8
0
100
AcDbPolyline
90
2
70
1
43
0.0
10
-210.15868611625663
20
-9.4538006995053756
10
-224.10638611625694
20
-8.2450006995054004
0
CIRCLE
5
191
100
AcDbEntity
8
0
100
AcDbCircle
10
174.60730118210094
20
-81.957727449900347
30
-9.3190392608902021e-16
40
1.1999999999999742
210
2.9681651934690491e-20
220
-1.2246467631777791e-16
230
-1
0
CIRCLE
5
192
100
AcDbEntity
8
0
100
AcDbCircle
10
8.5579762319431705
20
11.881832233462951
30
-9.3190392608902514e-16
40
1.1999999999999997
210
2.9681651934690491e-20
220
-1.2246467631777791e-16
230
-1
0
CIRCLE
5
193
100
AcDbEntity
8
0
100
AcDbCircle
10
229.29298181665507
20
11.82833289142765
30
-9.3190392608902534e-16
40
1.2000000000000097
210
2.9681651934690491e-20
220
-1.2246467631777791e-16
230
-1
0
LWPOLYLINE
5
194
100
AcDbEntity
8
0
100
AcDbPolyline
90
4
70
1
43
0.0
10
-171.76498611625652
20
-7.7123006995053389
10
-170.55628611625721
20
6.2354493004946443
10
-184.50398611625701
20
7.4442093004946486
10
-185.71268611625683
20
-6.5035006995053601
0
CIRCLE
5
195
100
AcDbEntity
8
0
100
AcDbCircle
10
63.198188760530769
20
-81.930725324906632
30
-9.3190392608902021e-16
40
1.199999999999992
210
2.9681651934690491e-20
220
-1.2246467631777791e-16
230
-1
0
CIRCLE
5
196
100
AcDbEntity
8
0
100
AcDbCircle
10
236.00645305730262
20
-65.573468186924345
30
-9.3190392608902218e-16
40
1.2000000000000097
210
2.9681651934690491e-20
220
-1.2246467631777791e-16
230
-1
0
CIRCLE
5
197
100
AcDbEntity
8
0
100
AcDbCircle
10
1.8069861743321263
20
-65.51670547568115
30
-9.3190392608902416e-16
40
1.1999999999999997
210
2.9681651934690491e-20
220
-1.2246467631777791e-16
230
-1
0
LINE
5
198
100
AcDbEntity
8
0
100
AcDbLine
10
-170.88821199942771
20
-79.09257284437237
30
1.0612878014187047e-14
11
-172.26128737178902
21
-82.821567250921021
31
1.1069507352030552e-14
0
ARC
5
199
100
AcDbEntity
8
0
100
AcDbCircle
10
229.29298181665507
20
11.82833289142765
30
-9.3190392608902494e-16
40
2.499999999999921
210
2.9681651934688649e-20
220
-1.2246467631777791e-16
230
-1
100
AcDbArc
50
-85.042831322380181
51
94.957168677619819
0
SPLINE
5
200
100
AcDbEntity
8
0
100
AcDbSpline
70
0
71
5
72
46
73
40
74
0
42
0.000000001
43
0.0000000001
44
0.0000000001
40
-0.42990257328563902
40
-0.42990257328563902
40
-0.42990257328563902
40
-0.42990257328563902
40
-0.42990257328563902
40
-0.42990257328563902
40
-0.42926829268292693
40
-0.42439024390243907
40
-0.41951219512195093
40
-0.414634146341464
40
-0.40975609756097597
40
-0.404878048780488
40
-0.40000000000000002
40
-0.39512195121951199
40
-0.39024390243902496
40
-0.38536585365853693
40
-0.38048780487804895
40
-0.37560975609756098
40
-0.370731707317073
40
-0.36585365853658602
40
-0.36097560975609799
40
-0.35609756097561002
40
-0.35121951219512199
40
-0.34634146341463401
40
-0.34146341463414692
40
-0.336585365853659
40
-0.33170731707317103
40
-0.326829268292683
40
-0.32195121951219507
40
-0.31707317073170693
40
-0.31219512195122001
40
-0.30731707317073198
40
-0.30243902439024395
40
-0.29756097560975597
40
-0.292682926829268
40
-0.28780487804878108
40
-0.28292682926829293
40
-0.27804878048780501
40
-0.27317073170731693
40
-0.26829268292682901
40
-0.26686121966991799
40
-0.26686121966991799
40
-0.26686121966991799
40
-0.26686121966991799
40
-0.26686121966991799
40
-0.26686121966991799
10
-142.02577317038373
20
-85.726418114333427
30
1.1426146412778361e-14
10
-142.0414377878202
20
-85.725425357475444
30
1.1426024370179361e-14
10
-142.17672020182118
20
-85.716870071973148
30
1.1424972634503993e-14
10
-142.4179266694191
20
-85.701899394167654
30
1.1423132095885871e-14
10
-142.73968181420597
20
-85.682258389348092
30
1.1420717216363872e-14
10
-143.14931115928241
20
-85.654898135264702
30
1.1417354393227932e-14
10
-143.75505190743186
20
-85.603748223109704
30
1.1411072356406139e-14
10
-144.54622474026746
20
-85.525189777921909
30
1.1401428238527543e-14
10
-145.50621792537711
20
-85.419977672134522
30
1.1388514977864e-14
10
-146.57180956741686
20
-85.29416600984149
30
1.1373075864844057e-14
10
-147.65939074668529
20
-85.15633005932726
30
1.1356163548573367e-14
10
-148.69783817406372
20
-85.014076347411191
30
1.133871167095347e-14
10
-149.66174840712475
20
-84.870532102247935
30
1.1321103960984236e-14
10
-150.56128052814699
20
-84.725200302943264
30
1.1303279249624391e-14
10
-151.4257709360607
20
-84.575427742494469
30
1.1284911741984357e-14
10
-152.29053892755522
20
-84.417590507800213
30
1.1265556588384103e-14
10
-153.18018215185731
20
-84.248536747143717
30
1.1244827068224474e-14
10
-154.10077404105743
20
-84.066444967704399
30
1.1222499932707276e-14
10
-155.0469685795739
20
-83.870712519861939
30
1.1198501537220411e-14
10
-156.00586160571743
20
-83.662079124824572
30
1.1172922854499035e-14
10
-156.96202378773674
20
-83.442610297091861
30
1.1146017295075829e-14
10
-157.90235869938431
20
-83.215863530296986
30
1.1118220914980641e-14
10
-158.81816384110627
20
-82.985667236452628
30
1.109000281775598e-14
10
-159.70682012713883
20
-82.754542515304081
30
1.1061671826804919e-14
10
-160.57313862223987
20
-82.522480284209237
30
1.1033226687024271e-14
10
-161.43197446836132
20
-82.285029565190783
30
1.1004121869911597e-14
10
-162.30665698682793
20
-82.033433821199836
30
1.097328431653875e-14
10
-163.21857516501566
20
-81.75906197490589
30
1.0939656389953691e-14
10
-164.17794511810982
20
-81.457208486373787
30
1.090266152450019e-14
10
-165.17542683395737
20
-81.130632188167368
30
1.0862637856942186e-14
10
-166.16995858595615
20
-80.794533351437693
30
1.0821448102346006e-14
10
-167.10492982596827
20
-80.470569897843816
30
1.0781746271371921e-14
10
-167.93276167862089
20
-80.177640764817411
30
1.0745848228494888e-14
10
-168.63434423932512
20
-79.924602911433198
30
1.0714839205554676e-14
10
-169.24591433723137
20
-79.700249443448413
30
1.0687345678306367e-14
10
-169.7781951865413
20
-79.503091451870191
30
1.0663184989709372e-14
10
-170.24670796641288
20
-79.329554354542211
30
1.0641918919022719e-14
10
-170.61553088550374
20
-79.19323146394359
30
1.0625213233077343e-14
10
-170.83721705961551
20
-79.111393252925112
30
1.0615184363042681e-14
10
-170.88821199942771
20
-79.09257284437237
30
1.0612878014187047e-14
0
LINE
5
201
100
AcDbEntity
8
0
100
AcDbLine
10
-5.9094613074014246
20
-63.365047165265302
30
8.6917085144703206e-15
11
-2.0242210002790282
21
-63.026161553082048
31
8.6503223180160244e-15
0
LINE
5
202
100
AcDbEntity
8
0
100
AcDbLine
10
-235.79042551852586
20
-63.082819254920807
30
8.6503223180160118e-15
11
-231.90502139707846
21
-63.419821503099428
31
8.69170851447033e-15
0
ARC
5
203
100
AcDbEntity
8
0
100
AcDbCircle
10
236.00645305730262
20
-65.573468186924345
30
-9.3190392608902514e-16
40
2.5000000000000275
210
2.9681651934691731e-20
220
-1.2246467631777789e-16
230
-1
100
AcDbArc
50
-85.042831322356122
51
94.957168677643097
0
LINE
5
204
100
AcDbEntity
8
0
100
AcDbLine
10
-8.340741405996269
20
9.3912883108637484
30
-2.1844472409112497e-16
11
-12.225989925251056
21
9.0524019823865736
31
-1.7705844015987595e-16
0
SPLINE
5
205
100
AcDbEntity
8
0
100
AcDbSpline
70
0
71
5
72
46
73
40
74
0
42
0.000000001
43
0.0000000001
44
0.0000000001
40
-0.73313878033009205
40
-0.73313878033009205
40
-0.73313878033009205
40
-0.73313878033009205
40
-0.73313878033009205
40
-0.73313878033009205
40
-0.73170731707317105
40
-0.72682926829268302
40
-0.72195121951219599
40
-0.71707317073170795
40
-0.71219512195122003
40
-0.70731707317073211
40
-0.70243902439024397
40
-0.69756097560975705
40
-0.69268292682926902
40
-0.68780487804878099
40
-0.68292682926829296
40
-0.67804878048780504
40
-0.673170731707318
40
-0.66829268292682997
40
-0.66341463414634205
40
-0.65853658536585402
40
-0.65365853658536599
40
-0.64878048780487896
40
-0.64390243902439104
40
-0.63902439024390301
40
-0.63414634146341498
40
-0.62926829268292706
40
-0.62439024390243902
40
-0.61951219512195199
40
-0.61463414634146396
40
-0.60975609756097604
40
-0.60487804878048801
40
-0.59999999999999998
40
-0.59512195121951295
40
-0.59024390243902503
40
-0.58536585365853699
40
-0.58048780487804896
40
-0.57560975609756104
40
-0.57073170731707401
40
-0.56995527975470694
40
-0.56995527975470694
40
-0.56995527975470694
40
-0.56995527975470694
40
-0.56995527975470694
40
-0.56995527975470694
10
-66.918666356001793
20
-79.067373840395177
30
1.0612878014187049e-14
10
-66.969651119520492
20
-79.086218880375554
30
1.0615184352596434e-14
10
-67.191292896288431
20
-79.168164157495625
30
1.0625213175740639e-14
10
-67.560040831142658
20
-79.304665090865583
30
1.0641918773315015e-14
10
-68.028457123773805
20
-79.478428268074083
30
1.0663184721198444e-14
10
-68.56063559242196
20
-79.675843702084791
30
1.0687345342488625e-14
10
-69.172114839681555
20
-79.900495063310473
30
1.0714839049011294e-14
10
-69.873620501286865
20
-80.153876715387327
30
1.074584852917087e-14
10
-70.701363365956794
20
-80.44721143354478
30
1.0781747101707188e-14
10
-71.636204276995315
20
-80.771630256024991
30
1.0821449200171087e-14
10
-72.630544617318719
20
-81.108208822872456
30
1.0862638671751679e-14
10
-73.62777358950791
20
-81.435260895184626
30
1.0902661398523197e-14
10
-74.586862831406066
20
-81.737568422590329
30
1.0939654924662309e-14
10
-75.498542703258465
20
-82.012373684603276
30
1.0973281801960517e-14
10
-76.373101484142836
20
-82.264393254054866
30
1.1004119338609818e-14
10
-77.231969786390877
20
-82.502272317519555
30
1.1033225628489792e-14
10
-78.098460458905265
20
-82.734777720979466
30
1.1061673608592102e-14
10
-78.987309674620093
20
-82.966358100820386
30
1.1090007642337823e-14
10
-79.903151316658779
20
-83.197010398666137
30
1.1118227217642607e-14
10
-80.843218947219071
20
-83.424200108938891
30
1.1146022029213686e-14
10
-81.798760700243832
20
-83.644090417587535
30
1.1172922462630036e-14
10
-82.756818638388538
20
-83.853128655448401
30
1.1198493826025451e-14
10
-83.702331451706286
20
-84.049271810555254
30
1.1222486369645338e-14
10
-84.622797406090655
20
-84.231806749766434
30
1.1244813130942442e-14
10
-85.513123228238442
20
-84.40135419657237
30
1.1265550277794875e-14
10
-86.37933131436364
20
-84.559734482744418
30
1.1284920557789136e-14
10
-87.245412705701497
20
-84.710061938591977
30
1.130330465428478e-14
10
-88.145732840350348
20
-84.855899818000438
30
1.132113791999254e-14
10
-89.108811070403931
20
-84.999848964560869
30
1.1338738019879475e-14
10
-90.144501852510814
20
-85.142386594396498
30
1.1356163103567093e-14
10
-91.228083093934501
20
-85.280428983706599
30
1.1373036257610836e-14
10
-92.290382047754221
20
-85.40649454781186
30
1.1388443305326004e-14
10
-93.249971314677751
20
-85.512144947830251
30
1.140135326517248e-14
10
-94.045012623209089
20
-85.591406121706726
30
1.1411036361036435e-14
10
-94.65865791795207
20
-85.643491301265598
30
1.1417396741686017e-14
10
-95.078373829156121
20
-85.671816395463836
30
1.1420853107317087e-14
10
-95.406593663084735
20
-85.69203944623716
30
1.1423319974577331e-14
10
-95.65263318048828
20
-85.707436568144075
30
1.1425198275268568e-14
10
-95.792082804954447
20
-85.716328445404443
30
1.14262830770439e-14
10
-95.811372033952807
20
-85.717561594397466
30
1.1426433521700003e-14
0
SPLINE
5
206
100
AcDbEntity
8
0
100
AcDbSpline
70
0
71
5
72
42
73
36
74
0
42
0.000000001
43
0.0000000001
44
0.0000000001
40
-0.90667599701259505
40
-0.90667599701259505
40
-0.90667599701259505
40
-0.90667599701259505
40
-0.90667599701259505
40
-0.90667599701259505
40
-0.90243902439024504
40
-0.89756097560975701
40
-0.89268292682926897
40
-0.88780487804878105
40
-0.88292682926829302
40
-0.8780487804878061
40
-0.87317073170731785
40
-0.86829268292683015
40
-0.86341463414634212
40
-0.85853658536585409
40
-0.85365853658536694
40
-0.84878048780487902
40
-0.84390243902439099
40
-0.83902439024390285
40
-0.83414634146341504
40
-0.82926829268292701
40
-0.82439024390243998
40
-0.81951219512195184
40
-0.81463414634146403
40
-0.809756097560976
40
-0.80487804878048785
40
-0.80000000000000104
40
-0.79512195121951301
40
-0.79024390243902498
40
-0.78536585365853695
40
-0.78048780487804903
40
-0.775609756097562
40
-0.77073170731707386
40
-0.76585365853658594
40
-0.7609756097560979
40
-0.75701042593091294
40
-0.75701042593091294
40
-0.75701042593091294
40
-0.75701042593091294
40
-0.75701042593091294
40
-0.75701042593091294
10
-28.704232828332291
20
-70.324163545981605
30
9.5432778630182744e-15
10
-28.920687662744065
20
-70.342180509727683
30
9.5454778799146147e-15
10
-29.365513879131907
20
-70.379143851867227
30
9.5499913804684265e-15
10
-29.982206456814026
20
-70.43021731049393
30
9.5562277705931349e-15
10
-30.697339154246674
20
-70.489315241267136
30
9.563443953236514e-15
10
-31.486965376715158
20
-70.555395712372956
30
9.5715130393307204e-15
10
-32.290773065935795
20
-70.625235072016579
30
9.5800420355636614e-15
10
-33.187138860475677
20
-70.707472835252929
30
9.5900866510019845e-15
10
-34.235747136452368
20
-70.809802891873929
30
9.6025873438377888e-15
10
-35.445461236175923
20
-70.936138416609822
30
9.6180230766691597e-15
10
-36.791260390551841
20
-71.087488442877813
30
9.6365181631046798e-15
10
-38.224497245212781
20
-71.262379870621089
30
9.6578936443565543e-15
10
-39.686045988307058
20
-71.457456800869096
30
9.6817402962953658e-15
10
-41.117751050586619
20
-71.668016600075077
30
9.7074839385793284e-15
10
-42.475711709366976
20
-71.888541835093662
30
9.7344501835901709e-15
10
-43.739357431144761
20
-72.113333149302065
30
9.7619416720312663e-15
10
-44.906395005401805
20
-72.337625829943306
30
9.7893749629633693e-15
10
-45.989948691952932
20
-72.558572132647257
30
9.8164009187442413e-15
10
-47.014925125248553
20
-72.776391690372165
30
9.8430456973829678e-15
10
-48.014525151413153
20
-72.995186420101675
30
9.8698106533592782e-15
10
-49.027154291292739
20
-73.224554263280879
30
9.897870055526257e-15
10
-50.091277680490137
20
-73.478212997918149
30
9.9289027054187348e-15
10
-51.238071142565254
20
-73.769735729830984
30
9.9645699036973312e-15
10
-52.484930262488582
20
-74.109185841571446
30
1.0006103542919253e-14
10
-53.828087914689284
20
-74.499156263388628
30
1.0053821277262673e-14
10
-55.236863343304492
20
-74.931591615430733
30
1.0106737517896947e-14
10
-56.643940671640664
20
-75.382893823708557
30
1.0161964332375687e-14
10
-57.962651642707982
20
-75.820457421436927
30
1.0215511275219889e-14
10
-59.110324154994991
20
-76.211777333902347
30
1.0263400076820623e-14
10
-60.030095172988112
20
-76.53287518221056
30
1.0302695920556805e-14
10
-60.71217051745105
20
-76.776571864961795
30
1.0332519910806687e-14
10
-61.199218002456071
20
-76.954930887051333
30
1.0354348134341309e-14
10
-61.56481180147307
20
-77.091008131973979
30
1.0371001938667086e-14
10
-61.882245835040585
20
-77.209199052279317
30
1.0385466729499481e-14
10
-62.116214204783596
20
-77.296126198120717
30
1.0396105289710464e-14
10
-62.227476758834172
20
-77.337420036552828
30
1.0401159023811567e-14
0
ARC
5
207
100
AcDbEntity
8
0
100
AcDbCircle
10
8.5579762319431705
20
11.881832233462951
30
-9.3190392608902494e-16
40
2.5000000000000027
210
2.9681651934691719e-20
220
-1.2246467631777789e-16
230
-1
100
AcDbArc
50
85.015057871227995
51
265.01505787122807
0
LINE
5
208
100
AcDbEntity
8
0
100
AcDbLine
10
-62.227476758834172
20
-77.337420036552828
30
1.0401159023811567e-14
11
-60.852593961946994
21
-81.065748422985564
31
1.0857788361655066e-14
0
LINE
5
209
100
AcDbEntity
8
0
100
AcDbLine
10
-65.543783559114516
20
-82.795702226827729
30
1.1069507352030522e-14
11
-66.918666356001694
21
-79.067373840395177
31
1.0612878014187049e-14
0
LINE
5
210
100
AcDbEntity
8
0
100
AcDbLine
10
-1.589751348385227
20
-68.007249398280265
30
9.2603425244656276e-15
11
-28.704232828332291
21
-70.324163545981605
31
9.5432778630182744e-15
0
LINE
5
211
100
AcDbEntity
8
0
100
AcDbLine
10
-5.9094613074014246
20
-63.365047165265302
30
8.6917085144703206e-15
11
-12.225989925251056
21
9.0524019823865736
31
-1.7705844015987595e-16
0
LINE
5
212
100
AcDbEntity
8
0
100
AcDbLine
10
-151.23198611625699
20
7.5729193004946502
30
0
11
-229.07695427787934
21
14.318981823431136
31
-8.2846493054074902e-16
0
LINE
5
213
100
AcDbEntity
8
0
100
AcDbLine
10
-86.616900000000001
20
7.5885800000000012
30
0
11
-8.7752110578900737
21
14.37237615606216
31
-8.2846493054074971e-16
0
LINE
5
214
100
AcDbEntity
8
0
100
AcDbLine
10
-231.90502139707846
20
-63.419821503099428
30
8.69170851447033e-15
11
-225.62359702150616
21
9.0006809989326086
31
-1.7705844015987582e-16
0
LINE
5
215
100
AcDbEntity
8
0
100
AcDbLine
10
-236.22248059607941
20
-68.064117118927811
30
9.2603425244656434e-15
11
-209.10687920501815
21
-70.367887570891057
31
9.5432778630182729e-15
0
ENDSEC
0
SECTION
2
OBJECTS
0
DICTIONARY
5
C
100
AcDbDictionary
3
ACAD_GROUP
350
D
3
ACAD_MLINESTYLE
350
17
0
DICTIONARY
5
D
100
AcDbDictionary
0
DICTIONARY
5
1A
330
C
100
AcDbDictionary
0
DICTIONARY
5
17
100
AcDbDictionary
0
ENDSEC
0
EOF
