0
SECTION
2
HEADER
9
$INSUNITS
70
4
9
$ACADVER
1
AC1014
9
$HANDSEED
5
FFFF
0
ENDSEC
0
SECTION
2
TABLES
0
TABLE
2
VPORT
5
8
100
AcDbSymbolTable
0
ENDTAB
0
TABLE
2
LTYPE
5
5
100
AcDbSymbolTable
0
LTYPE
5
14
100
AcDbSymbolTableRecord
100
AcDbLinetypeTableRecord
2
BYBLOCK
70
0
0
LTYPE
5
15
100
AcDbSymbolTableRecord
100
AcDbLinetypeTableRecord
2
BYLAYER
70
0
0
ENDTAB
0
TABLE
2
LAYER
5
2
100
AcDbSymbolTable
70
2
0
LAYER
5
50
100
AcDbSymbolTableRecord
100
AcDbLayerTableRecord
2
0
70
0
6
CONTINUOUS
0
ENDTAB
0
TABLE
2
STYLE
5
3
100
AcDbSymbolTable
70
1
0
STYLE
5
11
100
AcDbSymbolTableRecord
100
AcDbTextStyleTableRecord
2
STANDARD
70
0
0
ENDTAB
0
TABLE
2
VIEW
5
6
100
AcDbSymbolTable
70
0
0
ENDTAB
0
TABLE
2
UCS
5
7
100
AcDbSymbolTable
70
0
0
ENDTAB
0
TABLE
2
APPID
5
9
100
AcDbSymbolTable
70
2
0
APPID
5
12
100
AcDbSymbolTableRecord
100
AcDbRegAppTableRecord
2
ACAD
70
0
0
ENDTAB
0
TABLE
2
DIMSTYLE
5
A
100
AcDbSymbolTable
70
1
0
ENDTAB
0
TABLE
2
BLOCK_RECORD
5
1
100
AcDbSymbolTable
70
1
0
BLOCK_RECORD
5
1F
100
AcDbSymbolTableRecord
100
AcDbBlockTableRecord
2
*MODEL_SPACE
0
BLOCK_RECORD
5
1B
100
AcDbSymbolTableRecord
100
AcDbBlockTableRecord
2
*PAPER_SPACE
0
ENDTAB
0
ENDSEC
0
SECTION
2
BLOCKS
0
BLOCK
5
20
100
AcDbEntity
100
AcDbBlockBegin
2
*MODEL_SPACE
0
ENDBLK
5
21
100
AcDbEntity
100
AcDbBlockEnd
0
BLOCK
5
1C
100
AcDbEntity
100
AcDbBlockBegin
2
*PAPER_SPACE
0
ENDBLK
5
1D
100
AcDbEntity
100
AcDbBlockEnd
0
ENDSEC
0
SECTION
2
ENTITIES
0
LWPOLYLINE
5
100
100
AcDbEntity
8
0
100
AcDbPolyline
90
32
70
1
43
0.0
10
-149.68681796097465
20
105.27491497740735
10
-149.80301796097473
20
105.23491497740733
10
-149.92541796097464
20
105.22091497740735
10
-157.42541796097453
20
105.22091497740735
10
-157.54781796097453
20
105.23491497740733
10
-157.66401796097452
20
105.27491497740735
10
-157.76831796097457
20
105.34091497740735
10
-157.85541796097453
20
105.42791497740731
10
-157.92091796097449
20
105.53191497740733
10
-157.96161796097454
20
105.64891497740734
10
-157.97541796097454
20
105.77091497740736
10
-157.97541796097454
20
121.52091497740716
10
-157.96161796097454
20
121.64291497740717
10
-157.92091796097449
20
121.75991497740718
10
-157.85541796097453
20
121.86391497740715
10
-157.76831796097457
20
121.95091497740717
10
-157.66401796097452
20
122.01691497740714
10
-157.54781796097453
20
122.05691497740716
10
-157.42541796097453
20
122.07091497740717
10
-149.92541796097464
20
122.07091497740717
10
-149.80301796097473
20
122.05691497740716
10
-149.68681796097465
20
122.01691497740714
10
-149.58251796097466
20
121.95091497740717
10
-149.49541796097466
20
121.86391497740718
10
-149.42991796097465
20
121.75991497740718
10
-149.38921796097469
20
121.64291497740717
10
-149.37541796097466
20
121.52091497740716
10
-149.37541796097466
20
105.77091497740736
10
-149.38921796097469
20
105.64891497740734
10
-149.42991796097465
20
105.53191497740735
10
-149.49541796097466
20
105.42791497740731
10
-149.58251796097466
20
105.34091497740735
0
LWPOLYLINE
5
101
100
AcDbEntity
8
0
100
AcDbPolyline
90
24
70
1
43
0.0
10
-158.87291796097452
20
108.7409149774073
10
-159.02821796097453
20
108.72091497740735
10
-159.18351796097451
20
108.7409149774073
10
-159.32821796097454
20
108.8009149774073
10
-159.45251796097455
20
108.89691497740728
10
-159.54781796097453
20
109.02091497740727
10
-159.60781796097453
20
109.16591497740731
10
-159.62821796097452
20
109.32091497740728
10
-159.60781796097453
20
109.4759149774073
10
-159.54781796097453
20
109.62091497740728
10
-159.45251796097455
20
109.74491497740732
10
-159.32821796097454
20
109.84091497740728
10
-159.18351796097451
20
109.90091497740728
10
-159.02821796097453
20
109.92091497740729
10
-158.87291796097452
20
109.90091497740728
10
-158.72821796097452
20
109.84091497740728
10
-158.60391796097454
20
109.74491497740732
10
-158.50861796097453
20
109.62091497740728
10
-158.44871796097453
20
109.4759149774073
10
-158.42821796097451
20
109.32091497740728
10
-158.44871796097453
20
109.16591497740731
10
-158.50861796097453
20
109.02091497740727
10
-158.60391796097454
20
108.89691497740728
10
-158.72821796097452
20
108.8009149774073
0
LWPOLYLINE
5
102
100
AcDbEntity
8
0
100
AcDbPolyline
90
24
70
1
43
0.0
10
-148.90781796097463
20
118.95591497740718
10
-148.92821796097465
20
119.11091497740719
10
-148.90781796097463
20
119.26591497740718
10
-148.84781796097468
20
119.41091497740717
10
-148.75251796097473
20
119.53491497740717
10
-148.62821796097469
20
119.63091497740719
10
-148.48351796097469
20
119.69091497740719
10
-148.32821796097471
20
119.71091497740717
10
-148.17291796097473
20
119.69091497740719
10
-148.02821796097476
20
119.63091497740719
10
-147.90391796097472
20
119.53491497740717
10
-147.80861796097471
20
119.41091497740717
10
-147.74871796097472
20
119.26591497740718
10
-147.72821796097472
20
119.11091497740719
10
-147.74871796097472
20
118.95591497740718
10
-147.80861796097471
20
118.81091497740718
10
-147.90391796097472
20
118.68691497740711
10
-148.02821796097476
20
118.59091497740719
10
-148.17291796097473
20
118.53091497740719
10
-148.32821796097471
20
118.51091497740717
10
-148.48351796097469
20
118.53091497740719
10
-148.62821796097469
20
118.59091497740719
10
-148.75251796097473
20
118.68691497740711
10
-148.84781796097468
20
118.81091497740718
0
LWPOLYLINE
5
103
100
AcDbEntity
8
0
100
AcDbPolyline
90
24
70
1
43
0.0
10
-148.62821796097469
20
108.95091497740729
10
-148.48351796097469
20
109.01091497740734
10
-148.32821796097471
20
109.03091497740732
10
-148.17291796097473
20
109.01091497740734
10
-148.02821796097476
20
108.95091497740729
10
-147.90391796097472
20
108.85491497740736
10
-147.80861796097471
20
108.73091497740737
10
-147.74871796097472
20
108.58591497740734
10
-147.72821796097472
20
108.43091497740735
10
-147.74871796097472
20
108.27591497740735
10
-147.80861796097471
20
108.13091497740734
10
-147.90391796097472
20
108.00691497740731
10
-148.02821796097476
20
107.91091497740736
10
-148.17291796097473
20
107.85091497740731
10
-148.32821796097471
20
107.83091497740736
10
-148.48351796097469
20
107.85091497740731
10
-148.62821796097469
20
107.91091497740736
10
-148.75251796097473
20
108.00691497740731
10
-148.84781796097468
20
108.13091497740734
10
-148.90781796097463
20
108.27591497740735
10
-148.92821796097465
20
108.43091497740735
10
-148.90781796097463
20
108.58591497740734
10
-148.84781796097468
20
108.73091497740737
10
-148.75251796097473
20
108.85491497740736
0
LWPOLYLINE
5
104
100
AcDbEntity
8
0
100
AcDbPolyline
90
24
70
1
43
0.0
10
-148.17291796097473
20
110.79091497740728
10
-148.02821796097476
20
110.73091497740728
10
-147.90391796097472
20
110.63491497740733
10
-147.80861796097471
20
110.51091497740728
10
-147.74871796097472
20
110.36591497740729
10
-147.72821796097472
20
110.21091497740728
10
-147.74871796097472
20
110.0559149774073
10
-147.80861796097471
20
109.91091497740732
10
-147.90391796097472
20
109.78691497740728
10
-148.02821796097476
20
109.69091497740727
10
-148.17291796097473
20
109.63091497740733
10
-148.32821796097471
20
109.61091497740732
10
-148.48351796097469
20
109.63091497740733
10
-148.62821796097469
20
109.69091497740727
10
-148.75251796097473
20
109.78691497740728
10
-148.84781796097468
20
109.91091497740732
10
-148.90781796097463
20
110.0559149774073
10
-148.92821796097465
20
110.21091497740728
10
-148.90781796097463
20
110.36591497740729
10
-148.84781796097468
20
110.51091497740728
10
-148.75251796097473
20
110.63491497740733
10
-148.62821796097469
20
110.73091497740728
10
-148.48351796097469
20
110.79091497740728
10
-148.32821796097471
20
110.81091497740728
0
LWPOLYLINE
5
105
100
AcDbEntity
8
0
100
AcDbPolyline
90
24
70
1
43
0.0
10
-158.44871796097453
20
110.94591497740726
10
-158.50861796097453
20
110.80091497740727
10
-158.60391796097454
20
110.67691497740726
10
-158.72821796097452
20
110.58091497740728
10
-158.87291796097452
20
110.52091497740727
10
-159.02821796097453
20
110.50091497740729
10
-159.18351796097451
20
110.52091497740727
10
-159.32821796097454
20
110.58091497740728
10
-159.45251796097455
20
110.67691497740726
10
-159.54781796097453
20
110.80091497740727
10
-159.60781796097453
20
110.94591497740726
10
-159.62821796097452
20
111.10091497740726
10
-159.60781796097453
20
111.25591497740727
10
-159.54781796097453
20
111.40091497740728
10
-159.45251796097455
20
111.52491497740726
10
-159.32821796097454
20
111.6209149774073
10
-159.18351796097451
20
111.6809149774073
10
-159.02821796097453
20
111.70091497740728
10
-158.87291796097452
20
111.6809149774073
10
-158.72821796097452
20
111.6209149774073
10
-158.60391796097454
20
111.52491497740726
10
-158.50861796097453
20
111.40091497740728
10
-158.44871796097453
20
111.25591497740727
10
-158.42821796097451
20
111.10091497740726
0
LWPOLYLINE
5
106
100
AcDbEntity
8
0
100
AcDbPolyline
90
24
70
1
43
0.0
10
-148.92821796097465
20
113.77091497740723
10
-148.90781796097463
20
113.92591497740725
10
-148.84781796097468
20
114.07091497740723
10
-148.75251796097473
20
114.19491497740724
10
-148.62821796097469
20
114.29091497740725
10
-148.48351796097469
20
114.35091497740723
10
-148.32821796097471
20
114.37091497740725
10
-148.17291796097473
20
114.35091497740723
10
-148.02821796097476
20
114.29091497740725
10
-147.90391796097472
20
114.19491497740724
10
-147.80861796097471
20
114.07091497740723
10
-147.74871796097472
20
113.92591497740725
10
-147.72821796097472
20
113.77091497740723
10
-147.74871796097472
20
113.61591497740724
10
-147.80861796097471
20
113.47091497740726
10
-147.90391796097472
20
113.34691497740727
10
-148.02821796097476
20
113.25091497740732
10
-148.17291796097473
20
113.19091497740726
10
-148.32821796097471
20
113.17091497740726
10
-148.48351796097469
20
113.19091497740726
10
-148.62821796097469
20
113.25091497740732
10
-148.75251796097473
20
113.34691497740727
10
-148.84781796097468
20
113.47091497740726
10
-148.90781796097463
20
113.61591497740724
0
LWPOLYLINE
5
107
100
AcDbEntity
8
0
100
AcDbPolyline
90
24
70
1
43
0.0
10
-148.90781796097463
20
117.48591497740721
10
-148.84781796097468
20
117.63091497740719
10
-148.75251796097473
20
117.75491497740718
10
-148.62821796097469
20
117.8509149774072
10
-148.48351796097469
20
117.9109149774072
10
-148.32821796097471
20
117.93091497740718
10
-148.17291796097473
20
117.9109149774072
10
-148.02821796097476
20
117.8509149774072
10
-147.90391796097472
20
117.75491497740718
10
-147.80861796097471
20
117.63091497740719
10
-147.74871796097472
20
117.48591497740721
10
-147.72821796097472
20
117.33091497740722
10
-147.74871796097472
20
117.17591497740722
10
-147.80861796097471
20
117.03091497740721
10
-147.90391796097472
20
116.90691497740721
10
-148.02821796097476
20
116.81091497740722
10
-148.17291796097473
20
116.75091497740722
10
-148.32821796097471
20
116.73091497740722
10
-148.48351796097469
20
116.75091497740722
10
-148.62821796097469
20
116.81091497740722
10
-148.75251796097473
20
116.90691497740721
10
-148.84781796097468
20
117.03091497740721
10
-148.90781796097463
20
117.17591497740722
10
-148.92821796097465
20
117.33091497740722
0
LWPOLYLINE
5
108
100
AcDbEntity
8
0
100
AcDbPolyline
90
24
70
1
43
0.0
10
-147.74871796097472
20
111.83591497740728
10
-147.80861796097471
20
111.69091497740726
10
-147.90391796097472
20
111.56691497740727
10
-148.02821796097476
20
111.47091497740729
10
-148.17291796097473
20
111.41091497740732
10
-148.32821796097471
20
111.39091497740733
10
-148.48351796097469
20
111.41091497740732
10
-148.62821796097469
20
111.47091497740729
10
-148.75251796097473
20
111.56691497740727
10
-148.84781796097468
20
111.69091497740726
10
-148.90781796097463
20
111.83591497740728
10
-148.92821796097465
20
111.99091497740731
10
-148.90781796097463
20
112.14591497740727
10
-148.84781796097468
20
112.29091497740728
10
-148.75251796097473
20
112.41491497740728
10
-148.62821796097469
20
112.51091497740728
10
-148.48351796097469
20
112.57091497740728
10
-148.32821796097471
20
112.59091497740727
10
-148.17291796097473
20
112.57091497740728
10
-148.02821796097476
20
112.51091497740728
10
-147.90391796097472
20
112.41491497740728
10
-147.80861796097471
20
112.29091497740728
10
-147.74871796097472
20
112.14591497740727
10
-147.72821796097472
20
111.99091497740731
0
LWPOLYLINE
5
109
100
AcDbEntity
8
0
100
AcDbPolyline
90
24
70
1
43
0.0
10
-159.45251796097455
20
116.0169149774072
10
-159.54781796097453
20
116.14091497740718
10
-159.60781796097453
20
116.28591497740716
10
-159.62821796097452
20
116.44091497740719
10
-159.60781796097453
20
116.59591497740722
10
-159.54781796097453
20
116.7409149774072
10
-159.45251796097455
20
116.8649149774072
10
-159.32821796097451
20
116.96091497740719
10
-159.18351796097451
20
117.02091497740719
10
-159.02821796097453
20
117.04091497740721
10
-158.87291796097452
20
117.02091497740719
10
-158.72821796097452
20
116.96091497740719
10
-158.60391796097454
20
116.8649149774072
10
-158.50861796097453
20
116.7409149774072
10
-158.44871796097453
20
116.59591497740722
10
-158.42821796097451
20
116.44091497740719
10
-158.44871796097453
20
116.28591497740716
10
-158.50861796097453
20
116.14091497740718
10
-158.60391796097454
20
116.0169149774072
10
-158.72821796097452
20
115.92091497740724
10
-158.87291796097452
20
115.86091497740723
10
-159.02821796097453
20
115.84091497740724
10
-159.18351796097451
20
115.86091497740723
10
-159.32821796097451
20
115.92091497740724
0
LWPOLYLINE
5
110
100
AcDbEntity
8
0
100
AcDbPolyline
90
24
70
1
43
0.0
10
-159.62821796097452
20
114.66091497740722
10
-159.60781796097453
20
114.81591497740723
10
-159.54781796097453
20
114.96091497740723
10
-159.45251796097455
20
115.08491497740724
10
-159.32821796097454
20
115.18091497740724
10
-159.18351796097451
20
115.24091497740724
10
-159.02821796097453
20
115.26091497740723
10
-158.87291796097452
20
115.24091497740724
10
-158.72821796097452
20
115.18091497740724
10
-158.60391796097454
20
115.08491497740724
10
-158.50861796097453
20
114.96091497740723
10
-158.44871796097453
20
114.81591497740723
10
-158.42821796097451
20
114.66091497740722
10
-158.44871796097453
20
114.50591497740723
10
-158.50861796097453
20
114.36091497740722
10
-158.60391796097454
20
114.23691497740722
10
-158.72821796097452
20
114.14091497740722
10
-158.87291796097452
20
114.08091497740722
10
-159.02821796097453
20
114.06091497740724
10
-159.18351796097451
20
114.08091497740722
10
-159.32821796097454
20
114.14091497740722
10
-159.45251796097455
20
114.23691497740722
10
-159.54781796097453
20
114.36091497740722
10
-159.60781796097453
20
114.50591497740723
0
LWPOLYLINE
5
111
100
AcDbEntity
8
0
100
AcDbPolyline
90
24
70
1
43
0.0
10
-158.50861796097453
20
119.70091497740718
10
-158.60391796097454
20
119.57691497740711
10
-158.72821796097452
20
119.48091497740718
10
-158.87291796097452
20
119.42091497740718
10
-159.02821796097453
20
119.40091497740717
10
-159.18351796097451
20
119.42091497740718
10
-159.32821796097451
20
119.48091497740718
10
-159.45251796097455
20
119.57691497740711
10
-159.54781796097453
20
119.70091497740718
10
-159.60781796097453
20
119.84591497740716
10
-159.62821796097452
20
120.00091497740718
10
-159.60781796097453
20
120.15591497740715
10
-159.54781796097453
20
120.30091497740716
10
-159.45251796097455
20
120.42491497740711
10
-159.32821796097451
20
120.52091497740717
10
-159.18351796097451
20
120.58091497740718
10
-159.02821796097453
20
120.60091497740716
10
-158.87291796097452
20
120.58091497740718
10
-158.72821796097452
20
120.52091497740717
10
-158.60391796097454
20
120.42491497740711
10
-158.50861796097453
20
120.30091497740716
10
-158.44871796097453
20
120.15591497740715
10
-158.42821796097451
20
120.00091497740718
10
-158.44871796097453
20
119.84591497740716
0
LWPOLYLINE
5
112
100
AcDbEntity
8
0
100
AcDbPolyline
90
24
70
1
43
0.0
10
-159.62821796097452
20
118.22091497740718
10
-159.60781796097453
20
118.37591497740718
10
-159.54781796097453
20
118.52091497740713
10
-159.45251796097455
20
118.64491497740713
10
-159.32821796097451
20
118.74091497740713
10
-159.18351796097451
20
118.80091497740716
10
-159.02821796097453
20
118.82091497740717
10
-158.87291796097452
20
118.80091497740716
10
-158.72821796097452
20
118.74091497740713
10
-158.60391796097454
20
118.64491497740713
10
-158.50861796097453
20
118.52091497740713
10
-158.44871796097453
20
118.37591497740718
10
-158.42821796097451
20
118.22091497740718
10
-158.44871796097453
20
118.06591497740719
10
-158.50861796097453
20
117.92091497740716
10
-158.60391796097454
20
117.79691497740714
10
-158.72821796097452
20
117.70091497740717
10
-158.87291796097452
20
117.64091497740716
10
-159.02821796097453
20
117.62091497740721
10
-159.18351796097451
20
117.64091497740716
10
-159.32821796097451
20
117.70091497740717
10
-159.45251796097455
20
117.79691497740714
10
-159.54781796097453
20
117.92091497740716
10
-159.60781796097453
20
118.06591497740719
0
LWPOLYLINE
5
113
100
AcDbEntity
8
0
100
AcDbPolyline
90
24
70
1
43
0.0
10
-147.90391796097472
20
115.12691497740721
10
-148.02821796097476
20
115.03091497740725
10
-148.17291796097473
20
114.97091497740725
10
-148.32821796097471
20
114.95091497740724
10
-148.48351796097469
20
114.97091497740725
10
-148.62821796097469
20
115.03091497740725
10
-148.75251796097473
20
115.12691497740721
10
-148.84781796097468
20
115.25091497740725
10
-148.90781796097463
20
115.39591497740723
10
-148.92821796097465
20
115.55091497740725
10
-148.90781796097463
20
115.70591497740725
10
-148.84781796097468
20
115.85091497740723
10
-148.75251796097473
20
115.97491497740721
10
-148.62821796097469
20
116.0709149774072
10
-148.48351796097469
20
116.1309149774072
10
-148.32821796097471
20
116.15091497740721
10
-148.17291796097473
20
116.1309149774072
10
-148.02821796097476
20
116.0709149774072
10
-147.90391796097472
20
115.97491497740721
10
-147.80861796097471
20
115.85091497740723
10
-147.74871796097472
20
115.70591497740725
10
-147.72821796097472
20
115.55091497740725
10
-147.74871796097472
20
115.39591497740723
10
-147.80861796097471
20
115.25091497740725
0
LWPOLYLINE
5
114
100
AcDbEntity
8
0
100
AcDbPolyline
90
24
70
1
43
0.0
10
-148.48351796097469
20
120.31091497740718
10
-148.62821796097469
20
120.37091497740717
10
-148.75251796097473
20
120.46691497740717
10
-148.84781796097468
20
120.59091497740718
10
-148.90781796097463
20
120.73591497740719
10
-148.92821796097465
20
120.89091497740718
10
-148.90781796097463
20
121.04591497740716
10
-148.84781796097468
20
121.19091497740715
10
-148.75251796097473
20
121.31491497740714
10
-148.62821796097469
20
121.41091497740717
10
-148.48351796097469
20
121.47091497740718
10
-148.32821796097471
20
121.49091497740716
10
-148.17291796097473
20
121.47091497740718
10
-148.02821796097476
20
121.41091497740717
10
-147.90391796097472
20
121.31491497740714
10
-147.80861796097471
20
121.19091497740715
10
-147.74871796097472
20
121.04591497740716
10
-147.72821796097472
20
120.89091497740718
10
-147.74871796097472
20
120.73591497740719
10
-147.80861796097471
20
120.59091497740718
10
-147.90391796097472
20
120.46691497740717
10
-148.02821796097476
20
120.37091497740717
10
-148.17291796097473
20
120.31091497740718
10
-148.32821796097471
20
120.29091497740721
0
LWPOLYLINE
5
115
100
AcDbEntity
8
0
100
AcDbPolyline
90
24
70
1
43
0.0
10
-159.54781796097453
20
112.58091497740725
10
-159.60781796097453
20
112.72591497740723
10
-159.62821796097452
20
112.88091497740726
10
-159.60781796097453
20
113.03591497740726
10
-159.54781796097453
20
113.18091497740727
10
-159.45251796097455
20
113.30491497740726
10
-159.32821796097454
20
113.40091497740724
10
-159.18351796097451
20
113.46091497740724
10
-159.02821796097453
20
113.48091497740724
10
-158.87291796097452
20
113.46091497740724
10
-158.72821796097452
20
113.40091497740724
10
-158.60391796097454
20
113.30491497740726
10
-158.50861796097453
20
113.18091497740727
10
-158.44871796097453
20
113.03591497740726
10
-158.42821796097451
20
112.88091497740726
10
-158.44871796097453
20
112.72591497740723
10
-158.50861796097453
20
112.58091497740725
10
-158.60391796097454
20
112.45691497740725
10
-158.72821796097452
20
112.36091497740728
10
-158.87291796097452
20
112.30091497740727
10
-159.02821796097453
20
112.28091497740728
10
-159.18351796097451
20
112.30091497740727
10
-159.32821796097454
20
112.36091497740728
10
-159.45251796097455
20
112.45691497740725
0
LWPOLYLINE
5
116
100
AcDbEntity
8
0
100
AcDbPolyline
90
168
70
1
43
0.0
10
-259.25274100000001
20
32.988417999999996
10
-259.16767600000003
20
32.662952000000033
10
-259.04670600000003
20
32.349056000000033
10
-258.89135399999992
20
32.05067600000001
10
-258.70357300000001
20
31.771566000000053
10
-258.485724
20
31.515233000000027
10
-258.24054599999999
20
31.284902000000034
10
-257.97112199999992
20
31.083469000000026
10
-257.68083999999993
20
30.913466000000032
10
-257.37335000000002
20
30.777032000000037
10
-257.05251900000002
20
30.675881000000036
10
-256.72237899999999
20
30.611285000000041
10
-256.38708399999996
20
30.584058000000045
10
-256.05083999999999
20
30.594452000000008
10
-186.03778199999999
20
36.718865000000008
10
-162.03027600000007
20
36.735631000000012
10
-160.68140900000003
20
36.735631000000012
10
-160.48630800000007
20
36.716435000000004
10
-160.29870199999999
20
36.659541000000019
10
-160.12580300000002
20
36.567136000000019
10
-159.974255
20
36.442771999999991
10
-159.84988600000003
20
36.291230000000013
10
-159.757474
20
36.118335000000016
10
-159.70057200000008
20
35.930730999999994
10
-159.68140900000003
20
35.735631000000026
10
-159.68140900000003
20
32.735631999999995
10
-159.66104300000001
20
32.451002999999986
10
-159.60038
20
32.172169999999994
10
-159.50065500000002
20
31.904807000000002
10
-159.36389700000001
20
31.654356000000003
10
-159.19289000000001
20
31.425916000000012
10
-158.99111400000004
20
31.22413700000001
10
-158.76267800000002
20
31.053125000000019
10
-158.51223100000001
20
30.916361000000006
10
-158.24486999999999
20
30.816630000000007
10
-157.966037
20
30.755962000000014
10
-157.681409
20
30.735632000000006
10
-149.67977500000001
20
30.735632000000006
10
-149.39507100000006
20
30.756002999999996
10
-149.116165
20
30.816693000000033
10
-148.84873899999999
20
30.916465999999989
10
-148.59823900000001
20
31.053291000000005
10
-148.36976600000003
20
31.224380999999983
10
-148.16797400000004
20
31.426250999999983
10
-147.99697200000003
20
31.654789999999995
10
-147.86024399999999
20
31.905343000000013
10
-147.76057400000005
20
32.172807999999989
10
-147.69999200000004
20
32.451737000000008
10
-147.67977500000003
20
32.736449000000022
10
-147.68100200000001
20
35.739312999999996
10
-147.66197
20
35.933963000000006
10
-147.60541100000003
20
36.121184000000014
10
-147.51348900000002
20
36.293814999999995
10
-147.38972200000001
20
36.445250000000001
10
-147.238844
20
36.56969500000001
10
-147.06662800000001
20
36.662391
10
-146.879662
20
36.719789000000006
10
-146.68510000000003
20
36.739712999999995
10
-146.18556500000003
20
36.741760000000014
10
-145.339495
20
36.742452
10
-121.33198300000004
20
36.745308000000009
10
-51.313943000000073
20
30.678120999999994
10
-50.977694000000078
20
30.667919000000001
10
-50.642416000000061
20
30.695426000000001
10
-50.312326000000063
20
30.760297999999988
10
-49.99157400000005
20
30.861716999999995
10
-49.684193000000079
20
30.998409999999996
10
-49.394048000000055
20
31.168655999999988
10
-49.124788000000059
20
31.370316999999996
10
-48.879798000000072
20
31.600854999999992
10
-48.662159000000074
20
31.85737099999999
10
-48.474607000000063
20
32.136641999999981
10
-48.319501000000074
20
32.435154999999995
10
-48.198790000000074
20
32.749155999999985
10
-48.11399300000005
20
33.074697
10
-48.066179000000062
20
33.407685999999984
10
-41.522056000000063
20
108.85642399999996
10
-41.518748000000059
20
109.14148499999996
10
-41.556004000000087
20
109.42412099999999
10
-41.633064000000076
20
109.69858799999997
10
-41.748365000000057
20
109.95931099999999
10
-41.899563000000065
20
110.20099299999997
10
-42.083587000000058
20
110.41872199999999
10
-42.296697000000066
20
110.60807599999997
10
-42.534564000000088
20
110.76520699999996
10
-42.792354000000088
20
110.88692299999997
10
-43.064831000000083
20
110.97074999999997
10
-43.346462000000052
20
111.01494699999996
10
-68.86251800000008
20
113.17523899999996
10
-70.828071000000079
20
113.36063999999996
10
-72.789710000000014
20
113.58367999999999
10
-74.746713000000028
20
113.84427699999996
10
-76.698362000000046
20
114.14233699999997
10
-78.643939000000046
20
114.47774799999996
10
-80.582731000000024
20
114.85038899999995
10
-82.514024000000049
20
115.26012199999997
10
-84.437108000000066
20
115.70679599999997
10
-86.351279000000062
20
116.19024699999997
10
-88.255831000000043
20
116.71029899999995
10
-90.150065000000041
20
117.26675899999996
10
-92.033287000000058
20
117.85942299999995
10
-93.904802000000046
20
118.48807399999997
10
-95.763924000000046
20
119.15248299999999
10
-104.51605900000004
20
122.37521299999999
10
-106.38945400000004
20
123.043308
10
-108.27615300000005
20
123.67285099999998
10
-110.17536300000003
20
124.26357699999998
10
-112.08628700000003
20
124.81523899999998
10
-114.00811900000005
20
125.32760399999998
10
-115.94005300000003
20
125.80045699999998
10
-117.88127600000003
20
126.23359799999997
10
-119.83097200000003
20
126.62684699999998
10
-121.78832100000001
20
126.98003699999998
10
-123.75250000000001
20
127.29301999999997
10
-125.72268300000005
20
127.56566499999997
10
-127.69804300000004
20
127.79785599999998
10
-129.67774800000007
20
127.98949699999997
10
-131.66096600000003
20
128.14050599999999
10
-133.64686400000005
20
128.250821
10
-135.63460500000002
20
128.32039399999999
10
-137.62335600000003
20
128.34919099999999
10
-153.77753000000001
20
128.41750199999998
10
-169.82128599999996
20
128.33603299999999
10
-171.81001199999997
20
128.30560399999999
10
-173.79769599999997
20
128.23440500000001
10
-175.78350199999994
20
128.12246599999997
10
-177.76659599999994
20
127.96983499999997
10
-179.74614400000002
20
127.77657499999998
10
-181.72131199999995
20
127.54276899999996
10
-183.69127199999994
20
127.26851299999996
10
-185.65519399999999
20
126.953924
10
-187.61225400000001
20
126.59913400000001
10
-189.56162699999999
20
126.20429099999998
10
-191.50249500000001
20
125.76956299999999
10
-193.43404100000001
20
125.295131
10
-195.35545399999995
20
124.78119599999999
10
-197.26592599999998
20
124.22797199999999
10
-199.16465199999999
20
123.635694
10
-201.050836
20
123.00460900000002
10
-202.923689
20
122.33499699999999
10
-211.67318699999996
20
119.105115
10
-213.53176599999998
20
118.43918900000003
10
-215.40276699999993
20
117.80900900000003
10
-217.28550299999995
20
117.21480500000001
10
-219.17928199999992
20
116.656797
10
-221.08340899999996
20
116.13518799999997
10
-222.99718299999995
20
115.650172
10
-224.91990199999998
20
115.201926
10
-226.85085899999996
20
114.79061399999999
10
-228.78934499999991
20
114.41638799999998
10
-230.73464699999994
20
114.07938500000002
10
-232.68605199999996
20
113.77973
10
-234.642841
20
113.51753200000002
10
-236.60429700000003
20
113.29288700000001
10
-238.56969800000002
20
113.10588600000001
10
-264.08398
20
110.924738
10
-264.36557599999992
20
110.88028300000002
10
-264.63799099999994
20
110.79624300000005
10
-264.89568999999995
20
110.67432500000001
10
-265.13343599999996
20
110.51700500000001
10
-265.34640000000002
20
110.32748200000003
10
-265.53025300000002
20
110.10960500000002
10
-265.681262
20
109.86780100000003
10
-265.79635599999995
20
109.60698300000003
10
-265.873199
20
109.33245100000001
10
-265.91022799999996
20
109.04978300000002
10
-265.90661899999992
20
108.76472700000001
10
-259.30083400000001
20
33.321362000000022
0
LWPOLYLINE
5
117
100
AcDbEntity
8
0
100
AcDbPolyline
90
4
70
1
43
0.0
10
-43.543412999999973
20
108.11051999999997
10
-44.75223299999999
20
94.162819999999982
10
-58.699932999999959
20
95.371619999999979
10
-57.491132999999962
20
109.31931999999996
0
LWPOLYLINE
5
118
100
AcDbEntity
8
0
100
AcDbPolyline
90
4
70
1
43
0.0
10
-258.82457810381288
20
51.409432440432013
10
-260.03973894410888
20
65.356545044200914
10
-246.09262653423491
20
66.572105884449996
10
-244.87746569393892
20
52.624993280681011
0
LWPOLYLINE
5
119
100
AcDbEntity
8
0
100
AcDbPolyline
90
4
70
1
43
0.0
10
-119.77333299999995
20
52.572020000000002
10
-105.82563299999998
20
51.363219999999998
10
-107.03403299999997
20
37.415469999999985
10
-120.98173299999996
20
38.624219999999987
0
LWPOLYLINE
5
120
100
AcDbEntity
8
0
100
AcDbPolyline
90
4
70
1
43
0.0
10
-146.65523933591999
20
78.23060339539083
10
-160.6552393359199
20
78.23060339539083
10
-160.6552393359199
20
92.230603395390816
10
-146.65523933591999
20
92.230603395390801
0
LWPOLYLINE
5
121
100
AcDbEntity
8
0
100
AcDbPolyline
90
4
70
1
43
0.0
10
-102.53633299999998
20
89.321420000000003
10
-103.74473299999997
20
75.373719999999977
10
-117.69243299999997
20
76.582420000000013
10
-116.48403299999998
20
90.53022
0
LWPOLYLINE
5
122
100
AcDbEntity
8
0
100
AcDbPolyline
90
4
70
1
43
0.0
10
-206.48292603315895
20
50.902104376311314
10
-205.26746516866197
20
36.954941917969677
10
-219.21457759792497
20
35.739421077715967
10
-220.43003844303291
20
49.686543536062317
0
LWPOLYLINE
5
123
100
AcDbEntity
8
0
100
AcDbPolyline
90
4
70
1
43
0.0
10
-102.00279051995076
20
36.979940319394288
10
-100.794433
20
50.92722000000002
10
-86.846732999999986
20
49.718420000000016
10
-88.055432999999951
20
35.771210000000018
0
LWPOLYLINE
5
124
100
AcDbEntity
8
0
100
AcDbPolyline
90
4
70
1
43
0.0
10
-241.06173847114894
20
67.010544599322174
10
-227.11462606127498
20
68.226105439571199
10
-225.89946522097898
20
54.278992835802207
10
-239.84657763085295
20
53.063431995553231
0
LWPOLYLINE
5
125
100
AcDbEntity
8
0
100
AcDbPolyline
90
4
70
1
43
0.0
10
-65.787032999999994
20
72.08402000000001
10
-79.734732999999963
20
73.292819999999992
10
-78.526332999999951
20
87.240619999999964
10
-64.578632999999982
20
86.031819999999968
0
LWPOLYLINE
5
126
100
AcDbEntity
8
0
100
AcDbPolyline
90
4
70
1
43
0.0
10
-98.713533000000012
20
74.937619999999981
10
-97.505133000000001
20
88.885419999999996
10
-83.557432999999989
20
87.676619999999986
10
-84.765833000000001
20
73.728919999999988
0
LWPOLYLINE
5
127
100
AcDbEntity
8
0
100
AcDbPolyline
90
4
70
1
43
0.0
10
-85.202232999999964
20
68.697719999999975
10
-86.410632999999976
20
54.750019999999999
10
-100.35833299999999
20
55.958820000000003
10
-99.149932999999976
20
69.906519999999986
0
LWPOLYLINE
5
128
100
AcDbEntity
8
0
100
AcDbPolyline
90
4
70
1
43
0.0
10
-69.076332999999991
20
34.12587000000002
10
-83.024033000000003
20
35.334650000000011
10
-81.815632999999991
20
49.282419999999988
10
-67.867932999999979
20
48.073619999999991
0
LWPOLYLINE
5
129
100
AcDbEntity
8
0
100
AcDbPolyline
90
4
70
1
43
0.0
10
-62.836832999999984
20
47.637619999999998
10
-48.88913299999998
20
46.428819999999995
10
-50.097532999999991
20
32.481069999999988
10
-64.045232999999996
20
33.689850000000021
0
LWPOLYLINE
5
130
100
AcDbEntity
8
0
100
AcDbPolyline
90
4
70
1
43
0.0
10
-62.400732999999974
20
52.66922000000001
10
-61.192332999999962
20
66.616920000000007
10
-47.244632999999993
20
65.408120000000011
10
-48.453032999999969
20
51.460420000000006
0
LWPOLYLINE
5
131
100
AcDbEntity
8
0
100
AcDbPolyline
90
4
70
1
43
0.0
10
-122.72353299999995
20
77.018520000000024
10
-136.67153299999998
20
78.227220000000003
10
-135.46253300000001
20
92.174919999999986
10
-121.51473299999999
20
90.966219999999979
0
LWPOLYLINE
5
132
100
AcDbEntity
8
0
100
AcDbPolyline
90
4
70
1
43
0.0
10
-96.665832999999978
20
114.69552
10
-82.876532999999966
20
112.27572000000001
10
-85.29633299999999
20
98.486419999999981
10
-99.085632999999987
20
100.90621999999998
0
LWPOLYLINE
5
133
100
AcDbEntity
8
0
100
AcDbPolyline
90
4
70
1
43
0.0
10
-123.73693299999996
20
120.90131999999998
10
-110.57733299999997
20
116.12381999999998
10
-115.35483299999999
20
102.96422
10
-128.51443299999997
20
107.74181999999998
0
LWPOLYLINE
5
134
100
AcDbEntity
8
0
100
AcDbPolyline
90
4
70
1
43
0.0
10
-105.38953300000001
20
56.39482000000001
10
-119.337233
20
57.603619999999999
10
-118.12883299999999
20
71.551320000000018
10
-104.181133
20
70.342620000000011
0
LWPOLYLINE
5
135
100
AcDbEntity
8
0
100
AcDbPolyline
90
4
70
1
43
0.0
10
-160.63856430663998
20
54.130500061872993
10
-146.63856430663998
20
54.130500061872993
10
-146.63856430663998
20
40.130500061872993
10
-160.63856430663998
20
40.130500061872993
0
LWPOLYLINE
5
136
100
AcDbEntity
8
0
100
AcDbPolyline
90
4
70
1
43
0.0
10
-229.62096426847594
20
96.979593899949805
10
-243.56807667834994
20
95.764033059700822
10
-244.78363751859894
20
109.71114546957453
10
-230.83652510872497
20
110.9267063098236
0
LWPOLYLINE
5
137
100
AcDbEntity
8
0
100
AcDbPolyline
90
4
70
1
43
0.0
10
-263.76165799155592
20
108.05714590475851
10
-249.8145255816849
20
109.27270675470231
10
-248.59896474143591
20
95.325594344828602
10
-262.54607715130993
20
94.110033504579619
0
LWPOLYLINE
5
138
100
AcDbEntity
8
0
100
AcDbPolyline
90
4
70
1
43
0.0
10
-208.57546430314096
20
74.910992863883223
10
-222.52257676148895
20
73.695532023622377
10
-223.73773760178494
20
87.642644627391377
10
-209.79062519191098
20
88.858205467640403
0
LWPOLYLINE
5
139
100
AcDbEntity
8
0
100
AcDbPolyline
90
4
70
1
43
0.0
10
-206.92146474801996
20
55.932992390923523
10
-220.86857715789293
20
54.717431550674519
10
-222.08373799818895
20
68.664544154443391
10
-208.13662558831595
20
69.880104994692488
0
LWPOLYLINE
5
140
100
AcDbEntity
8
0
100
AcDbPolyline
90
4
70
1
43
0.0
10
-258.3860391465829
20
46.378044425878514
10
-244.43892673670996
20
47.593605266127511
10
-243.22376586248197
20
33.646422662366824
10
-257.17087828204996
20
32.430881822115438
0
LWPOLYLINE
5
141
100
AcDbEntity
8
0
100
AcDbPolyline
90
4
70
1
43
0.0
10
-224.24576538952195
20
35.300422217488077
10
-238.19287780909087
20
34.084881377236727
10
-239.40803867362391
20
48.032043980999816
10
-225.46092626374991
20
49.247604821248821
0
LWPOLYLINE
5
142
100
AcDbEntity
8
0
100
AcDbPolyline
90
4
70
1
43
0.0
10
-182.47403749711395
20
52.994542646304808
10
-168.52642508729895
20
54.21010372892291
10
-167.31166424695596
20
40.262990931258713
10
-181.25847665686501
20
39.047430236431083
0
LWPOLYLINE
5
143
100
AcDbEntity
8
0
100
AcDbPolyline
90
4
70
1
43
0.0
10
-224.4305616439629
20
112.24141167914787
10
-210.64243623337694
20
114.66789559459929
10
-208.21595231792492
20
100.87977018401298
10
-222.00407772851088
20
98.453286268561598
0
LWPOLYLINE
5
144
100
AcDbEntity
8
0
100
AcDbPolyline
90
4
70
1
43
0.0
10
-184.56647581558093
20
77.003531182338804
10
-185.78203665582998
20
90.950643592212487
10
-171.83482419749396
20
92.166104480947126
10
-170.61906335726894
20
78.218992168020975
0
LWPOLYLINE
5
145
100
AcDbEntity
8
0
100
AcDbPolyline
90
4
70
1
43
0.0
10
-201.45193772771597
20
51.340043139716116
10
-187.50482531784195
20
52.55560397996512
10
-186.28966442907193
20
38.608391376207898
10
-200.23677686318302
20
37.39288053595304
0
LWPOLYLINE
5
146
100
AcDbEntity
8
0
100
AcDbPolyline
90
4
70
1
43
0.0
10
-203.54447628854098
20
75.349531627217502
10
-204.75963712883691
20
89.296644230986487
10
-190.81252471896292
20
90.512205071235527
10
-189.5973638301929
20
76.564992467478291
0
LWPOLYLINE
5
147
100
AcDbEntity
8
0
100
AcDbPolyline
90
4
70
1
43
0.0
10
-184.14235794276891
20
72.015636182445419
10
-170.19564553284795
20
73.231196828799213
10
-168.97988469262293
20
59.284084515873104
10
-182.92689710250789
20
58.068523724097886
0
LWPOLYLINE
5
148
100
AcDbEntity
8
0
100
AcDbPolyline
90
4
70
1
43
0.0
10
-201.89047668494487
20
56.371431154269615
10
-203.10563757371489
20
70.318643758026781
10
-189.15852511536792
20
71.534104598287499
10
-187.9433642750719
20
57.58699199451862
0
LWPOLYLINE
5
149
100
AcDbEntity
8
0
100
AcDbPolyline
90
4
70
1
43
0.0
10
-247.74662613782994
20
85.550206357397911
10
-246.53146524905992
20
71.602993753640732
10
-260.47857765893406
20
70.38743291339172
10
-261.6937385477039
20
84.334645517148914
0
LWPOLYLINE
5
150
100
AcDbEntity
8
0
100
AcDbPolyline
90
4
70
1
43
0.0
10
-228.76862566487091
20
87.204205912519228
10
-227.55346477610095
20
73.256993308761992
10
-241.50057718597395
20
72.041432468512909
10
-242.71573807474391
20
85.988645072270089
0
LWPOLYLINE
5
151
100
AcDbEntity
8
0
100
AcDbPolyline
90
4
70
1
43
0.0
10
-178.79046925146696
20
107.72963464293593
10
-191.94775182042895
20
102.94565624410367
10
-196.73163021927294
20
116.10293886153929
10
-183.57434760183793
20
120.88681726038332
0
LWPOLYLINE
5
152
100
AcDbEntity
8
0
100
AcDbPolyline
90
4
70
1
43
0.0
10
-123.14523300000002
20
72.030419999999978
10
-124.35393299999998
20
58.082720000000016
10
-138.30153299999995
20
59.291520000000027
10
-137.09253299999997
20
73.239219999999975
0
LWPOLYLINE
5
153
100
AcDbEntity
8
0
100
AcDbPolyline
90
4
70
1
43
0.0
10
-124.80433299999999
20
53.00851999999999
10
-126.01313299999998
20
39.060819999999993
10
-139.96053299999997
20
40.26962000000001
10
-138.75253299999997
20
54.217320000000015
0
LWPOLYLINE
5
154
100
AcDbEntity
8
0
100
AcDbPolyline
90
4
70
1
43
0.0
10
-62.522232999999986
20
109.75532000000003
10
-63.731032999999982
20
95.807619999999957
10
-77.678732999999966
20
97.016419999999982
10
-76.469932999999969
20
110.96412000000001
0
LWPOLYLINE
5
155
100
AcDbEntity
8
0
100
AcDbPolyline
90
4
70
1
43
0.0
10
-59.547532999999987
20
85.595820000000003
10
-45.599832999999983
20
84.387019999999993
10
-46.808232999999994
20
70.439220000000006
10
-60.755932999999999
20
71.648020000000002
0
LWPOLYLINE
5
156
100
AcDbEntity
8
0
100
AcDbPolyline
90
4
70
1
43
0.0
10
-67.431832999999969
20
53.105220000000003
10
-81.379532999999981
20
54.314019999999999
10
-80.171132999999969
20
68.261719999999997
10
-66.223432999999957
20
67.05292
0
LWPOLYLINE
5
157
100
AcDbEntity
8
0
100
AcDbPolyline
90
20
70
1
43
0.0
10
-149.47209800000002
20
32.558548000000002
10
-149.36231800000004
20
32.568720000000027
10
-149.25627700000001
20
32.538549000000017
10
-149.16829600000003
20
32.472109000000003
10
-149.11025700000002
20
32.378372000000027
10
-149.08999900000003
20
32.269999999999982
10
-149.08999900000003
20
31.670000000000034
10
-149.09510700000004
20
31.614875000000016
10
-149.13493400000004
20
31.512070000000012
10
-149.20920900000004
20
31.430595000000014
10
-149.30789999999999
20
31.381451999999985
10
-149.41768000000002
20
31.371279999999988
10
-149.52372100000002
20
31.401450999999998
10
-149.61170200000004
20
31.467891000000012
10
-149.66974100000007
20
31.561627999999988
10
-149.68999900000003
20
31.670000000000034
10
-149.68999900000003
20
32.269999999999982
10
-149.68489100000002
20
32.325125
10
-149.64506399999999
20
32.427930000000003
10
-149.57078900000002
20
32.509405000000001
0
LWPOLYLINE
5
158
100
AcDbEntity
8
0
100
AcDbPolyline
90
20
70
1
43
0.0
10
-157.774934
20
35.442070000000015
10
-157.849209
20
35.360595000000018
10
-157.9479
20
35.311452000000031
10
-158.05768000000003
20
35.301279999999991
10
-158.16372100000004
20
35.331451000000001
10
-158.25170199999999
20
35.397891000000016
10
-158.309741
20
35.491627999999992
10
-158.32999900000002
20
35.600000000000009
10
-158.32999900000002
20
36.700000000000003
10
-158.32489100000001
20
36.755125000000021
10
-158.28506400000003
20
36.857929999999982
10
-158.21078900000001
20
36.939404999999979
10
-158.11209800000003
20
36.988548000000009
10
-158.002318
20
36.998720000000006
10
-157.896277
20
36.968548999999996
10
-157.80829600000001
20
36.902108999999982
10
-157.75025700000003
20
36.808372000000006
10
-157.72999899999999
20
36.700000000000003
10
-157.72999899999999
20
35.600000000000009
10
-157.735107
20
35.544875000000019
0
LWPOLYLINE
5
159
100
AcDbEntity
8
0
100
AcDbPolyline
90
20
70
1
43
0.0
10
-158.25170199999999
20
31.467891000000012
10
-158.309741
20
31.561627999999988
10
-158.32999900000002
20
31.670000000000034
10
-158.32999900000002
20
32.269999999999982
10
-158.32489100000001
20
32.325125
10
-158.28506400000003
20
32.427930000000003
10
-158.21078900000001
20
32.509405000000001
10
-158.11209800000003
20
32.558548000000002
10
-158.002318
20
32.568720000000027
10
-157.896277
20
32.538549000000017
10
-157.80829600000001
20
32.472109000000003
10
-157.75025700000003
20
32.378372000000027
10
-157.72999899999999
20
32.269999999999982
10
-157.72999899999999
20
31.670000000000034
10
-157.735107
20
31.614875000000016
10
-157.774934
20
31.512070000000012
10
-157.849209
20
31.430595000000014
10
-157.9479
20
31.381451999999985
10
-158.05768000000003
20
31.371279999999988
10
-158.16372100000004
20
31.401450999999998
0
LWPOLYLINE
5
160
100
AcDbEntity
8
0
100
AcDbPolyline
90
20
70
1
43
0.0
10
-149.57078900000002
20
36.939404999999979
10
-149.47209800000002
20
36.988548000000009
10
-149.36231800000004
20
36.998720000000006
10
-149.25627700000001
20
36.968548999999996
10
-149.16829600000003
20
36.902108999999982
10
-149.11025700000002
20
36.808372000000006
10
-149.08999900000003
20
36.700000000000003
10
-149.08999900000003
20
35.600000000000009
10
-149.09510700000004
20
35.544875000000019
10
-149.13493400000004
20
35.442070000000015
10
-149.20920900000004
20
35.360595000000018
10
-149.30789999999999
20
35.311452000000031
10
-149.41768000000002
20
35.301279999999991
10
-149.52372100000002
20
35.331451000000001
10
-149.61170200000004
20
35.397891000000016
10
-149.66974100000007
20
35.491627999999992
10
-149.68999900000006
20
35.600000000000009
10
-149.68999900000003
20
36.700000000000003
10
-149.68489100000002
20
36.755125000000021
10
-149.64506399999999
20
36.857929999999982
0
LWPOLYLINE
5
161
100
AcDbEntity
8
0
100
AcDbPolyline
90
8
70
1
43
0.0
10
-156.71867548858873
20
59.180731313781827
42
0.85224093815895208
10
-155.73132251141135
20
59.180731313781834
10
-151.71867548858867
20
59.180731313781827
42
0.85224093815894664
10
-150.73132251141129
20
59.180731313781827
10
-146.64690189987797
20
59.180731313781827
10
-146.64690189987797
20
73.180731313781791
10
-160.64690189987795
20
73.180731313781791
10
-160.64690189987795
20
59.180731313781827
0
CIRCLE
5
162
100
AcDbEntity
8
0
100
AcDbCircle
10
-166.22499899999994
20
109.28999999999999
30
0
40
0.50000000000000711
210
0
220
0
230
1
0
CIRCLE
5
163
100
AcDbEntity
8
0
100
AcDbCircle
10
-166.22499899999994
20
111.83
30
0
40
0.50000000000000711
210
0
220
0
230
1
0
CIRCLE
5
164
100
AcDbEntity
8
0
100
AcDbCircle
10
-166.22499899999994
20
114.36999999999999
30
0
40
0.50000000000000711
210
0
220
0
230
1
0
CIRCLE
5
165
100
AcDbEntity
8
0
100
AcDbCircle
10
-166.22499899999994
20
119.45
30
0
40
0.50000000000000711
210
0
220
0
230
1
0
CIRCLE
5
166
100
AcDbEntity
8
0
100
AcDbCircle
10
-166.22499899999994
20
116.91
30
0
40
0.50000000000000711
210
0
220
0
230
1
0
CIRCLE
5
167
100
AcDbEntity
8
0
100
AcDbCircle
10
-153.71499900000001
20
95.016877999999991
30
0
40
0.17500000000000071
210
0
220
0
230
1
0
CIRCLE
5
168
100
AcDbEntity
8
0
100
AcDbCircle
10
-153.71499900000001
20
96.819999999999993
30
0
40
0.17500000000000071
210
0
220
0
230
1
0
CIRCLE
5
169
100
AcDbEntity
8
0
100
AcDbCircle
10
-150.81999900000002
20
35.61999999999999
30
0
40
0.32500000000000639
210
0
220
0
230
1
0
CIRCLE
5
170
100
AcDbEntity
8
0
100
AcDbCircle
10
-152.81343799999999
20
97.721561000000008
30
0
40
0.17500000000000071
210
0
220
0
230
1
0
CIRCLE
5
171
100
AcDbEntity
8
0
100
AcDbCircle
10
-152.81343799999999
20
95.918438999999992
30
0
40
0.17500000000000071
210
0
220
0
230
1
0
CIRCLE
5
172
100
AcDbEntity
8
0
100
AcDbCircle
10
-151.911877
20
96.819999999999993
30
0
40
0.17500000000000071
210
0
220
0
230
1
0
CIRCLE
5
173
100
AcDbEntity
8
0
100
AcDbCircle
10
-153.71499900000001
20
98.623121999999995
30
0
40
0.17500000000000071
210
0
220
0
230
1
0
CIRCLE
5
174
100
AcDbEntity
8
0
100
AcDbCircle
10
-156.22499900000003
20
73.759999999999991
30
0
40
0.50000000000000711
210
0
220
0
230
1
0
CIRCLE
5
175
100
AcDbEntity
8
0
100
AcDbCircle
10
-156.599999
20
35.61999999999999
30
0
40
0.32499999999998863
210
0
220
0
230
1
0
CIRCLE
5
176
100
AcDbEntity
8
0
100
AcDbCircle
10
-154.61655999999999
20
97.721561000000008
30
0
40
0.17500000000000071
210
0
220
0
230
1
0
CIRCLE
5
177
100
AcDbEntity
8
0
100
AcDbCircle
10
-155.51812100000001
20
96.819999999999993
30
0
40
0.17499999999998295
210
0
220
0
230
1
0
CIRCLE
5
178
100
AcDbEntity
8
0
100
AcDbCircle
10
-151.224999
20
73.759999999999991
30
0
40
0.50000000000000711
210
0
220
0
230
1
0
CIRCLE
5
179
100
AcDbEntity
8
0
100
AcDbCircle
10
-153.72499900000003
20
73.759999999999991
30
0
40
0.50000000000000711
210
0
220
0
230
1
0
CIRCLE
5
180
100
AcDbEntity
8
0
100
AcDbCircle
10
-144.944999
20
45.595000000000013
30
0
40
0.50000000000000711
210
0
220
0
230
1
0
CIRCLE
5
181
100
AcDbEntity
8
0
100
AcDbCircle
10
-144.944999
20
48.134999999999991
30
0
40
0.50000000000000711
210
0
220
0
230
1
0
CIRCLE
5
182
100
AcDbEntity
8
0
100
AcDbCircle
10
-144.944999
20
50.675000000000011
30
0
40
0.50000000000000711
210
0
220
0
230
1
0
CIRCLE
5
183
100
AcDbEntity
8
0
100
AcDbCircle
10
-154.61655999999999
20
95.918438999999992
30
0
40
0.17500000000000071
210
0
220
0
230
1
0
ENDSEC
0
SECTION
2
OBJECTS
0
DICTIONARY
5
C
100
AcDbDictionary
3
ACAD_GROUP
350
D
3
ACAD_MLINESTYLE
350
17
0
DICTIONARY
5
D
100
AcDbDictionary
0
DICTIONARY
5
1A
330
C
100
AcDbDictionary
0
DICTIONARY
5
17
100
AcDbDictionary
0
ENDSEC
0
EOF
